<?xml version="1.0" encoding="UTF-8"?>
<svg xmlns="http://www.w3.org/2000/svg" xmlns:xlink="http://www.w3.org/1999/xlink" width="816.0" height="1056.0" viewBox="0.0 -0.0 816.0 1056.0">
<desc  rect="188.310000,429.700000,661.350000,430.460000" borderline_top="1" borderline_bottom="1">path</desc>
<clipPath id="path_mask_004_0002"><path d="M96.0,527.99866 L96.0,95.99867 L720.0,95.99867 L720.0,527.99866 Z " /></clipPath>
<g clip-path="url(#path_mask_004_0002)">
<path d="M188.69333,430.07864 L660.9734,430.07864 " fill="none" stroke="#000000" stroke-opacity="1.0" stroke-width="0.75"  />
</g>
<desc  rect="188.310000,429.700000,189.070000,440.060000" borderline_left="1" borderline_right="1">path</desc>
<clipPath id="path_mask_004_0003"><path d="M96.0,527.99866 L96.0,95.99867 L720.0,95.99867 L720.0,527.99866 Z " /></clipPath>
<g clip-path="url(#path_mask_004_0003)">
<path d="M188.69333,430.07864 L188.69333,439.67865 " fill="none" stroke="#000000" stroke-opacity="1.0" stroke-width="0.75"  />
</g>
<desc  rect="282.780000,429.700000,283.540000,440.060000" borderline_left="1" borderline_right="1">path</desc>
<clipPath id="path_mask_004_0004"><path d="M96.0,527.99866 L96.0,95.99867 L720.0,95.99867 L720.0,527.99866 Z " /></clipPath>
<g clip-path="url(#path_mask_004_0004)">
<path d="M283.16,430.07864 L283.16,439.67865 " fill="none" stroke="#000000" stroke-opacity="1.0" stroke-width="0.75"  />
</g>
<desc  rect="377.230000,429.700000,377.990000,440.060000" borderline_left="1" borderline_right="1">path</desc>
<clipPath id="path_mask_004_0005"><path d="M96.0,527.99866 L96.0,95.99867 L720.0,95.99867 L720.0,527.99866 Z " /></clipPath>
<g clip-path="url(#path_mask_004_0005)">
<path d="M377.61337,430.07864 L377.61337,439.67865 " fill="none" stroke="#000000" stroke-opacity="1.0" stroke-width="0.75"  />
</g>
<desc  rect="471.690000,429.700000,472.450000,440.060000" borderline_left="1" borderline_right="1">path</desc>
<clipPath id="path_mask_004_0006"><path d="M96.0,527.99866 L96.0,95.99867 L720.0,95.99867 L720.0,527.99866 Z " /></clipPath>
<g clip-path="url(#path_mask_004_0006)">
<path d="M472.06665,430.07864 L472.06665,439.67865 " fill="none" stroke="#000000" stroke-opacity="1.0" stroke-width="0.75"  />
</g>
<desc  rect="566.140000,429.700000,566.900000,440.060000" borderline_left="1" borderline_right="1">path</desc>
<clipPath id="path_mask_004_0007"><path d="M96.0,527.99866 L96.0,95.99867 L720.0,95.99867 L720.0,527.99866 Z " /></clipPath>
<g clip-path="url(#path_mask_004_0007)">
<path d="M566.52,430.07864 L566.52,439.67865 " fill="none" stroke="#000000" stroke-opacity="1.0" stroke-width="0.75"  />
</g>
<desc  rect="660.590000,429.700000,661.350000,440.060000" borderline_left="1" borderline_right="1">path</desc>
<clipPath id="path_mask_004_0008"><path d="M96.0,527.99866 L96.0,95.99867 L720.0,95.99867 L720.0,527.99866 Z " /></clipPath>
<g clip-path="url(#path_mask_004_0008)">
<path d="M660.9734,430.07864 L660.9734,439.67865 " fill="none" stroke="#000000" stroke-opacity="1.0" stroke-width="0.75"  />
</g>
<desc fontName="Helvetica" rect="184.9174,453.13864,192.38615,464.83395" fontRect="184.25334,449.74265,193.15178,468.23865" ucode="30">0</desc>
<path d="M184.9174,458.9902 Q184.9174,456.95895,185.33147,455.72458 Q185.75334,454.4824,186.57365,453.81052 Q187.40178,453.13864,188.65178,453.13864 Q189.57365,453.13864,190.26897,453.50583 Q190.96428,453.88083,191.4174,454.57614 Q191.87053,455.27927,192.12834,456.27927 Q192.38615,457.28708,192.38615,458.9902 Q192.38615,461.00583,191.97209,462.2402 Q191.55803,463.4824,190.73772,464.15427 Q189.90959,464.83395,188.65178,464.83395 Q186.99553,464.83395,186.05022,463.64645 Q184.9174,462.21677,184.9174,458.9902 Z M186.36272,458.9902 Q186.36272,461.81052,187.01897,462.7402 Q187.68303,463.6777,188.65178,463.6777 Q189.62053,463.6777,190.27678,462.7402 Q190.94084,461.8027,190.94084,458.9902 Q190.94084,456.16208,190.28459,455.2324 Q189.62053,454.3027,188.63615,454.3027 Q187.6674,454.3027,187.08928,455.12302 Q186.36272,456.1699,186.36272,458.9902 Z " fill="#000000" />
<desc fontName="Helvetica" rect="274.7221,453.13864,282.30804,464.63864" fontRect="274.25336,449.74265,283.1518,468.23865" ucode="32">2</desc>
<path d="M282.30804,463.28708 L282.30804,464.63864 L274.73773,464.63864 Q274.7221,464.13083,274.9018,463.66208 Q275.19086,462.88864,275.82367,462.13864 Q276.4643,461.38864,277.66742,460.40427 Q279.5346,458.87302,280.19086,457.9824 Q280.8471,457.08395,280.8471,456.28708 Q280.8471,455.45114,280.25336,454.88083 Q279.6518,454.3027,278.69086,454.3027 Q277.67523,454.3027,277.06586,454.91208 Q276.45648,455.52145,276.44867,456.59958 L275.00336,456.45114 Q275.1518,454.83395,276.12054,453.9902 Q277.0893,453.13864,278.7221,453.13864 Q280.37054,453.13864,281.33148,454.0527 Q282.29242,454.96677,282.29242,456.31833 Q282.29242,457.00583,282.01117,457.6699 Q281.72992,458.33395,281.08148,459.06833 Q280.42523,459.8027,278.9096,461.08395 Q277.64398,462.14645,277.2846,462.52145 Q276.92523,462.90427,276.69086,463.28708 L282.30804,463.28708 Z " fill="#000000" />
<desc fontName="Helvetica" rect="283.81586,453.13864,291.2846,464.83395" fontRect="283.1518,449.74265,292.05023,468.23865" ucode="30">0</desc>
<path d="M283.81586,458.9902 Q283.81586,456.95895,284.22992,455.72458 Q284.6518,454.4824,285.4721,453.81052 Q286.30023,453.13864,287.55023,453.13864 Q288.4721,453.13864,289.16742,453.50583 Q289.86273,453.88083,290.31586,454.57614 Q290.76898,455.27927,291.0268,456.27927 Q291.2846,457.28708,291.2846,458.9902 Q291.2846,461.00583,290.87054,462.2402 Q290.45648,463.4824,289.63617,464.15427 Q288.80804,464.83395,287.55023,464.83395 Q285.89398,464.83395,284.94867,463.64645 Q283.81586,462.21677,283.81586,458.9902 Z M285.26117,458.9902 Q285.26117,461.81052,285.91742,462.7402 Q286.58148,463.6777,287.55023,463.6777 Q288.51898,463.6777,289.17523,462.7402 Q289.8393,461.8027,289.8393,458.9902 Q289.8393,456.16208,289.18304,455.2324 Q288.51898,454.3027,287.5346,454.3027 Q286.56586,454.3027,285.98773,455.12302 Q285.26117,456.1699,285.26117,458.9902 Z " fill="#000000" />
<desc fontName="Helvetica" rect="368.9231,453.18552,376.84497,464.63864" fontRect="368.71997,449.74265,377.6184,468.23865" ucode="34">4</desc>
<path d="M373.89185,464.63864 L373.89185,461.89645 L368.9231,461.89645 L368.9231,460.6074 L374.14966,453.18552 L375.2981,453.18552 L375.2981,460.6074 L376.84497,460.6074 L376.84497,461.89645 L375.2981,461.89645 L375.2981,464.63864 L373.89185,464.63864 Z M373.89185,460.6074 L373.89185,455.44333 L370.3059,460.6074 L373.89185,460.6074 Z " fill="#000000" />
<desc fontName="Helvetica" rect="378.28247,453.13864,385.75122,464.83395" fontRect="377.6184,449.74265,386.51685,468.23865" ucode="30">0</desc>
<path d="M378.28247,458.9902 Q378.28247,456.95895,378.69653,455.72458 Q379.1184,454.4824,379.93872,453.81052 Q380.76685,453.13864,382.01685,453.13864 Q382.93872,453.13864,383.63403,453.50583 Q384.32935,453.88083,384.78247,454.57614 Q385.2356,455.27927,385.4934,456.27927 Q385.75122,457.28708,385.75122,458.9902 Q385.75122,461.00583,385.33716,462.2402 Q384.9231,463.4824,384.10278,464.15427 Q383.27466,464.83395,382.01685,464.83395 Q380.3606,464.83395,379.41528,463.64645 Q378.28247,462.21677,378.28247,458.9902 Z M379.72778,458.9902 Q379.72778,461.81052,380.38403,462.7402 Q381.0481,463.6777,382.01685,463.6777 Q382.9856,463.6777,383.64185,462.7402 Q384.3059,461.8027,384.3059,458.9902 Q384.3059,456.16208,383.64966,455.2324 Q382.9856,454.3027,382.00122,454.3027 Q381.03247,454.3027,380.45435,455.12302 Q379.72778,456.1699,379.72778,458.9902 Z " fill="#000000" />
<desc fontName="Helvetica" rect="463.7749,453.13864,471.3374,464.83395" fontRect="463.17334,449.74265,472.07178,468.23865" ucode="36">6</desc>
<path d="M471.13428,455.9902 L469.73584,456.09958 Q469.54834,455.27145,469.2046,454.89645 Q468.63428,454.2949,467.79834,454.2949 Q467.12646,454.2949,466.61865,454.6699 Q465.9546,455.15427,465.57178,456.08395 Q465.18896,457.01364,465.17334,458.7324 Q465.68115,457.95895,466.41553,457.58395 Q467.1499,457.20895,467.9546,457.20895 Q469.36084,457.20895,470.3452,458.2402 Q471.3374,459.27927,471.3374,460.9199 Q471.3374,461.99802,470.87646,462.9199 Q470.4077,463.84958,469.5952,464.34177 Q468.7827,464.83395,467.75146,464.83395 Q465.99365,464.83395,464.88428,463.5449 Q463.7749,462.24802,463.7749,459.27927 Q463.7749,455.95895,465.00146,454.45114 Q466.07178,453.13864,467.88428,453.13864 Q469.23584,453.13864,470.0952,453.89645 Q470.9624,454.65427,471.13428,455.9902 Z M465.3921,460.9277 Q465.3921,461.65427,465.69678,462.31833 Q466.00928,462.9824,466.56396,463.32614 Q467.11865,463.6777,467.72803,463.6777 Q468.61865,463.6777,469.25928,462.95895 Q469.8999,462.2402,469.8999,461.00583 Q469.8999,459.81833,469.2671,459.13864 Q468.63428,458.45114,467.67334,458.45114 Q466.7202,458.45114,466.05615,459.13083 Q465.3921,459.81833,465.3921,460.9277 Z " fill="#000000" />
<desc fontName="Helvetica" rect="472.73584,453.13864,480.2046,464.83395" fontRect="472.07178,449.74265,480.9702,468.23865" ucode="30">0</desc>
<path d="M472.73584,458.9902 Q472.73584,456.95895,473.1499,455.72458 Q473.57178,454.4824,474.3921,453.81052 Q475.2202,453.13864,476.4702,453.13864 Q477.3921,453.13864,478.0874,453.50583 Q478.7827,453.88083,479.23584,454.57614 Q479.68896,455.27927,479.94678,456.27927 Q480.2046,457.28708,480.2046,458.9902 Q480.2046,461.00583,479.79053,462.2402 Q479.37646,463.4824,478.55615,464.15427 Q477.72803,464.83395,476.4702,464.83395 Q474.81396,464.83395,473.86865,463.64645 Q472.73584,462.21677,472.73584,458.9902 Z M474.18115,458.9902 Q474.18115,461.81052,474.8374,462.7402 Q475.50146,463.6777,476.4702,463.6777 Q477.43896,463.6777,478.0952,462.7402 Q478.75928,461.8027,478.75928,458.9902 Q478.75928,456.16208,478.10303,455.2324 Q477.43896,454.3027,476.4546,454.3027 Q475.48584,454.3027,474.9077,455.12302 Q474.18115,456.1699,474.18115,458.9902 Z " fill="#000000" />
<desc fontName="Helvetica" rect="558.27515,453.13864,565.822,464.83395" fontRect="557.6267,449.74265,566.52515,468.23865" ucode="38">8</desc>
<path d="M560.45483,458.4277 Q559.57983,458.1074,559.15796,457.51364 Q558.7361,456.9199,558.7361,456.09177 Q558.7361,454.84177,559.6345,453.9902 Q560.53296,453.13864,562.02515,453.13864 Q563.52515,453.13864,564.4392,454.00583 Q565.3533,454.88083,565.3533,456.13083 Q565.3533,456.9277,564.9392,457.51364 Q564.51733,458.1074,563.6658,458.4277 Q564.72046,458.77145,565.26733,459.53708 Q565.822,460.3027,565.822,461.3652 Q565.822,462.83395,564.78296,463.83395 Q563.7439,464.83395,562.0486,464.83395 Q560.3533,464.83395,559.3142,463.83395 Q558.27515,462.82614,558.27515,461.32614 Q558.27515,460.20895,558.83765,459.45895 Q559.40796,458.70114,560.45483,458.4277 Z M560.1736,456.0449 Q560.1736,456.8574,560.697,457.37302 Q561.22046,457.88864,562.0564,457.88864 Q562.8689,457.88864,563.3845,457.38083 Q563.90796,456.8652,563.90796,456.12302 Q563.90796,455.34958,563.3767,454.82614 Q562.83765,454.2949,562.0408,454.2949 Q561.2361,454.2949,560.70483,454.81052 Q560.1736,455.32614,560.1736,456.0449 Z M559.72046,461.33395 Q559.72046,461.93552,560.0017,462.49802 Q560.2908,463.06052,560.8533,463.3652 Q561.4158,463.6777,562.0642,463.6777 Q563.072,463.6777,563.7283,463.02927 Q564.3845,462.38083,564.3845,461.38083 Q564.3845,460.3652,563.71265,459.70114 Q563.03296,459.03708,562.01733,459.03708 Q561.02515,459.03708,560.3767,459.69333 Q559.72046,460.34958,559.72046,461.33395 Z " fill="#000000" />
<desc fontName="Helvetica" rect="567.1892,453.13864,574.65796,464.83395" fontRect="566.52515,449.74265,575.4236,468.23865" ucode="30">0</desc>
<path d="M567.1892,458.9902 Q567.1892,456.95895,567.6033,455.72458 Q568.02515,454.4824,568.84546,453.81052 Q569.6736,453.13864,570.9236,453.13864 Q571.84546,453.13864,572.5408,453.50583 Q573.2361,453.88083,573.6892,454.57614 Q574.14233,455.27927,574.40015,456.27927 Q574.65796,457.28708,574.65796,458.9902 Q574.65796,461.00583,574.2439,462.2402 Q573.82983,463.4824,573.0095,464.15427 Q572.1814,464.83395,570.9236,464.83395 Q569.26733,464.83395,568.322,463.64645 Q567.1892,462.21677,567.1892,458.9902 Z M568.6345,458.9902 Q568.6345,461.81052,569.2908,462.7402 Q569.95483,463.6777,570.9236,463.6777 Q571.89233,463.6777,572.5486,462.7402 Q573.21265,461.8027,573.21265,458.9902 Q573.21265,456.16208,572.5564,455.2324 Q571.89233,454.3027,570.90796,454.3027 Q569.9392,454.3027,569.3611,455.12302 Q568.6345,456.1699,568.6345,458.9902 Z " fill="#000000" />
<desc fontName="Helvetica" rect="649.3822,453.13864,653.60095,464.63864" fontRect="647.64,449.74265,656.53845,468.23865" ucode="31">1</desc>
<path d="M653.60095,464.63864 L652.1947,464.63864 L652.1947,455.6777 Q651.6869,456.16208,650.8666,456.64645 Q650.03845,457.13083,649.3822,457.37302 L649.3822,456.01364 Q650.5619,455.45895,651.4447,454.6699 Q652.3275,453.88083,652.6947,453.13864 L653.60095,453.13864 L653.60095,464.63864 Z " fill="#000000" />
<desc fontName="Helvetica" rect="657.2025,453.13864,664.67126,464.83395" fontRect="656.53845,449.74265,665.4369,468.23865" ucode="30">0</desc>
<path d="M657.2025,458.9902 Q657.2025,456.95895,657.6166,455.72458 Q658.03845,454.4824,658.85876,453.81052 Q659.6869,453.13864,660.9369,453.13864 Q661.85876,453.13864,662.5541,453.50583 Q663.2494,453.88083,663.7025,454.57614 Q664.15564,455.27927,664.41345,456.27927 Q664.67126,457.28708,664.67126,458.9902 Q664.67126,461.00583,664.2572,462.2402 Q663.84314,463.4824,663.0228,464.15427 Q662.1947,464.83395,660.9369,464.83395 Q659.28064,464.83395,658.3353,463.64645 Q657.2025,462.21677,657.2025,458.9902 Z M658.6478,458.9902 Q658.6478,461.81052,659.3041,462.7402 Q659.96814,463.6777,660.9369,463.6777 Q661.90564,463.6777,662.5619,462.7402 Q663.22595,461.8027,663.22595,458.9902 Q663.22595,456.16208,662.5697,455.2324 Q661.90564,454.3027,660.92126,454.3027 Q659.9525,454.3027,659.3744,455.12302 Q658.6478,456.1699,658.6478,458.9902 Z " fill="#000000" />
<desc fontName="Helvetica" rect="666.10095,453.13864,673.5697,464.83395" fontRect="665.4369,449.74265,674.3353,468.23865" ucode="30">0</desc>
<path d="M666.10095,458.9902 Q666.10095,456.95895,666.515,455.72458 Q666.9369,454.4824,667.7572,453.81052 Q668.5853,453.13864,669.8353,453.13864 Q670.7572,453.13864,671.4525,453.50583 Q672.1478,453.88083,672.60095,454.57614 Q673.0541,455.27927,673.3119,456.27927 Q673.5697,457.28708,673.5697,458.9902 Q673.5697,461.00583,673.15564,462.2402 Q672.7416,463.4824,671.92126,464.15427 Q671.09314,464.83395,669.8353,464.83395 Q668.1791,464.83395,667.23376,463.64645 Q666.10095,462.21677,666.10095,458.9902 Z M667.54626,458.9902 Q667.54626,461.81052,668.2025,462.7402 Q668.8666,463.6777,669.8353,463.6777 Q670.8041,463.6777,671.4603,462.7402 Q672.1244,461.8027,672.1244,458.9902 Q672.1244,456.16208,671.46814,455.2324 Q670.8041,454.3027,669.8197,454.3027 Q668.85095,454.3027,668.2728,455.12302 Q667.54626,456.1699,667.54626,458.9902 Z " fill="#000000" />
<desc  rect="174.340000,206.220000,175.100000,425.590000" borderline_left="1" borderline_right="1">path</desc>
<clipPath id="path_mask_004_0009"><path d="M96.0,527.99866 L96.0,95.99867 L720.0,95.99867 L720.0,527.99866 Z " /></clipPath>
<g clip-path="url(#path_mask_004_0009)">
<path d="M174.72002,425.21198 L174.72002,206.5986 " fill="none" stroke="#000000" stroke-opacity="1.0" stroke-width="0.75"  />
</g>
<desc  rect="164.740000,424.830000,175.100000,425.590000" borderline_top="1" borderline_bottom="1">path</desc>
<clipPath id="path_mask_004_0010"><path d="M96.0,527.99866 L96.0,95.99867 L720.0,95.99867 L720.0,527.99866 Z " /></clipPath>
<g clip-path="url(#path_mask_004_0010)">
<path d="M174.72002,425.21198 L165.12,425.21198 " fill="none" stroke="#000000" stroke-opacity="1.0" stroke-width="0.75"  />
</g>
<desc  rect="164.740000,388.410000,175.100000,389.170000" borderline_top="1" borderline_bottom="1">path</desc>
<clipPath id="path_mask_004_0011"><path d="M96.0,527.99866 L96.0,95.99867 L720.0,95.99867 L720.0,527.99866 Z " /></clipPath>
<g clip-path="url(#path_mask_004_0011)">
<path d="M174.72002,388.7853 L165.12,388.7853 " fill="none" stroke="#000000" stroke-opacity="1.0" stroke-width="0.75"  />
</g>
<desc  rect="164.740000,351.970000,175.100000,352.730000" borderline_top="1" borderline_bottom="1">path</desc>
<clipPath id="path_mask_004_0012"><path d="M96.0,527.99866 L96.0,95.99867 L720.0,95.99867 L720.0,527.99866 Z " /></clipPath>
<g clip-path="url(#path_mask_004_0012)">
<path d="M174.72002,352.34528 L165.12,352.34528 " fill="none" stroke="#000000" stroke-opacity="1.0" stroke-width="0.75"  />
</g>
<desc  rect="164.740000,315.530000,175.100000,316.290000" borderline_top="1" borderline_bottom="1">path</desc>
<clipPath id="path_mask_004_0013"><path d="M96.0,527.99866 L96.0,95.99867 L720.0,95.99867 L720.0,527.99866 Z " /></clipPath>
<g clip-path="url(#path_mask_004_0013)">
<path d="M174.72002,315.90524 L165.12,315.90524 " fill="none" stroke="#000000" stroke-opacity="1.0" stroke-width="0.75"  />
</g>
<desc  rect="164.740000,279.100000,175.100000,279.860000" borderline_top="1" borderline_bottom="1">path</desc>
<clipPath id="path_mask_004_0014"><path d="M96.0,527.99866 L96.0,95.99867 L720.0,95.99867 L720.0,527.99866 Z " /></clipPath>
<g clip-path="url(#path_mask_004_0014)">
<path d="M174.72002,279.47867 L165.12,279.47867 " fill="none" stroke="#000000" stroke-opacity="1.0" stroke-width="0.75"  />
</g>
<desc  rect="164.740000,242.660000,175.100000,243.420000" borderline_top="1" borderline_bottom="1">path</desc>
<clipPath id="path_mask_004_0015"><path d="M96.0,527.99866 L96.0,95.99867 L720.0,95.99867 L720.0,527.99866 Z " /></clipPath>
<g clip-path="url(#path_mask_004_0015)">
<path d="M174.72002,243.03864 L165.12,243.03864 " fill="none" stroke="#000000" stroke-opacity="1.0" stroke-width="0.75"  />
</g>
<desc  rect="164.740000,206.220000,175.100000,206.980000" borderline_top="1" borderline_bottom="1">path</desc>
<clipPath id="path_mask_004_0016"><path d="M96.0,527.99866 L96.0,95.99867 L720.0,95.99867 L720.0,527.99866 Z " /></clipPath>
<g clip-path="url(#path_mask_004_0016)">
<path d="M174.72002,206.5986 L165.12,206.5986 " fill="none" stroke="#000000" stroke-opacity="1.0" stroke-width="0.75"  />
</g>
<desc fontName="OMYJDM+LMRoman10-Regular" rect="213.79588,542.5445,222.81535,552.20154" fontRect="213.052,536.93884,223.47554,555.76154" ucode="47">G</desc>
<path d="M222.81535,548.6947 L222.81535,548.28296 L221.19476,548.3228 C220.66344,548.3228,219.53435,548.3228,219.05614,548.28296 L219.05614,548.6947 L219.4812,548.6947 C220.67673,548.6947,220.71655,548.8408,220.71655,549.33234 L220.71655,550.1825 C220.71655,551.6702,219.02957,551.7898,218.65764,551.7898 C217.79422,551.7898,215.1641,551.3248,215.1641,547.3664 C215.1641,543.39465,217.78093,542.9563,218.57793,542.9563 C219.99925,542.9563,221.20805,544.1518,221.47372,546.10443 C221.50029,546.2904,221.50029,546.33026,221.68626,546.33026 C221.89879,546.33026,221.89879,546.2904,221.89879,546.0115 L221.89879,542.8633 C221.89879,542.63745,221.89879,542.5445,221.75267,542.5445 C221.69955,542.5445,221.64641,542.5445,221.54015,542.70386 L220.87596,543.6869 C220.4509,543.2618,219.73358,542.5445,218.41852,542.5445 C215.9478,542.5445,213.79588,544.64325,213.79588,547.3664 C213.79588,550.0895,215.92123,552.20154,218.4451,552.20154 C219.41478,552.20154,220.47746,551.8562,220.92911,551.07245 C221.10179,551.3647,221.63312,551.89606,221.77924,551.89606 C221.89879,551.89606,221.89879,551.7898,221.89879,551.5905 L221.89879,549.2792 C221.89879,548.76117,221.95193,548.6947,222.81535,548.6947 Z M222.81535,548.6947 " fill="#000000" />
<desc fontName="OMYJDM+LMRoman10-Regular" rect="223.84749,546.038,228.31073,551.9093" fontRect="223.47556,536.93884,228.67868,555.76154" ucode="72">r</desc>
<path d="M228.31073,546.8483 C228.31073,546.4233,227.89896,546.038,227.32776,546.038 C226.35806,546.038,225.87987,546.92804,225.6939,547.4992 L225.6939,546.038 L223.84747,546.18414 L223.84747,546.59595 C224.77733,546.59595,224.88359,546.6889,224.88359,547.33984 L224.88359,550.8998 C224.88359,551.49756,224.73747,551.49756,223.84747,551.49756 L223.84747,551.9093 L225.3618,551.8695 C225.89313,551.8695,226.51746,551.8695,227.04881,551.9093 L227.04881,551.49756 L226.76984,551.49756 C225.78687,551.49756,225.7603,551.35144,225.7603,550.8732 L225.7603,548.8276 C225.7603,547.5125,226.31822,546.33026,227.32776,546.33026 C227.42075,546.33026,227.44731,546.33026,227.47388,546.34357 C227.43402,546.3568,227.16837,546.51624,227.16837,546.86163 C227.16837,547.2335,227.44731,547.4328,227.73955,547.4328 C227.97864,547.4328,228.31073,547.2734,228.31073,546.8483 Z M228.31073,546.8483 " fill="#000000" />
<desc fontName="OMYJDM+LMRoman10-Regular" rect="229.10374,542.63745,235.09459,552.0554" fontRect="228.67868,536.93884,235.3204,555.76154" ucode="e1">á</desc>
<path d="M235.09459,550.7271 L235.09459,549.9832 L234.7625,549.9832 L234.7625,550.7271 C234.7625,551.49756,234.43042,551.5773,234.2843,551.5773 C233.84595,551.5773,233.79282,550.9795,233.79282,550.9131 L233.79282,548.25635 C233.79282,547.6985,233.79282,547.1804,233.3146,546.6889 C232.79655,546.1709,232.13237,545.9583,231.49478,545.9583 C230.40552,545.9583,229.48895,546.58264,229.48895,547.45935 C229.48895,547.85785,229.75464,548.0837,230.1,548.0837 C230.47195,548.0837,230.71104,547.818,230.71104,547.47266 C230.71104,547.31323,230.64464,546.8749,230.0336,546.86163 C230.39224,546.39667,231.04314,546.25055,231.4682,546.25055 C232.11908,546.25055,232.87625,546.7686,232.87625,547.95087 L232.87625,548.4423 C232.19879,548.4822,231.26895,548.52203,230.4321,548.92053 C229.43584,549.3722,229.10374,550.0629,229.10374,550.6474 C229.10374,551.7234,230.39224,552.0554,231.22911,552.0554 C232.10582,552.0554,232.71684,551.5241,232.96924,550.8998 C233.02237,551.43115,233.38103,551.989,234.00534,551.989 C234.2843,551.989,235.09459,551.80304,235.09459,550.7271 Z M232.87625,550.0496 C232.87625,551.3116,231.91985,551.7632,231.32208,551.7632 C230.67119,551.7632,230.12657,551.2983,230.12657,550.6341 C230.12657,549.9035,230.68448,548.801,232.87625,548.7213 Z M233.6467,543.11566 C233.6467,542.8766,233.4076,542.63745,233.16849,542.63745 C232.96924,542.63745,232.82312,542.78357,232.76999,542.8633 L231.17596,544.8956 L231.40178,545.13477 L233.42088,543.51416 C233.54044,543.4212,233.6467,543.2751,233.6467,543.11566 Z M233.6467,543.11566 " fill="#000000" />
<desc fontName="OMYJDM+LMRoman10-Regular" rect="235.67906,542.5445,242.32079,551.9093" fontRect="235.3204,536.93884,242.7007,555.76154" ucode="fb01">ﬁ</desc>
<path d="M242.32079,551.9093 L242.32079,551.49756 C241.43079,551.49756,241.28467,551.49756,241.28467,550.8998 L241.28467,546.0248 L239.61096,546.1443 C239.39842,546.1576,239.37186,546.1709,239.37186,546.1709 C239.34528,546.18414,239.31873,546.18414,239.13275,546.18414 L237.5653,546.18414 L237.5653,544.6831 C237.5653,543.36804,238.70769,542.83673,239.53125,542.83673 C239.92975,542.83673,240.40796,542.96954,240.67363,543.2751 C240.12901,543.30164,240.04932,543.6736,240.04932,543.8861 C240.04932,544.32446,240.39468,544.49713,240.64706,544.49713 C240.95258,544.49713,241.2581,544.2846,241.2581,543.8861 C241.2581,543.1024,240.52751,542.5445,239.54454,542.5445 C238.30919,542.5445,236.72844,543.2219,236.72844,544.66986 L236.72844,546.18414 L235.67906,546.18414 L235.67906,546.59595 L236.72844,546.59595 L236.72844,550.8998 C236.72844,551.49756,236.58232,551.49756,235.69232,551.49756 L235.69232,551.9093 L237.1668,551.8695 L238.64127,551.9093 L238.64127,551.49756 C237.75127,551.49756,237.60515,551.49756,237.60515,550.8998 L237.60515,546.59595 L239.70395,546.59595 C240.31499,546.59595,240.40796,546.7686,240.40796,547.31323 L240.40796,550.8998 C240.40796,551.49756,240.26184,551.49756,239.37186,551.49756 L239.37186,551.9093 L240.84631,551.8695 Z M240.84631,551.8695 " fill="#000000" />
<desc fontName="OMYJDM+LMRoman10-Regular" rect="243.15233,545.9583,248.21333,552.0554" fontRect="242.70068,536.93884,248.6052,555.76154" ucode="63">c</desc>
<path d="M248.21332,550.3286 C248.21332,550.19574,248.08049,550.19574,248.04063,550.19574 C247.92108,550.19574,247.89452,550.2489,247.86797,550.3286 C247.48273,551.56396,246.61931,551.7234,246.12784,551.7234 C245.4238,551.7234,244.25485,551.15216,244.25485,549.01355 C244.25485,546.8483,245.3441,546.2904,246.04813,546.2904 C246.16766,546.2904,247.00455,546.3037,247.46945,546.7819 C246.92484,546.8218,246.84514,547.2203,246.84514,547.39294 C246.84514,547.73834,247.08423,548.00397,247.45616,548.00397 C247.80154,548.00397,248.0672,547.7782,248.0672,547.37964 C248.0672,546.4764,247.05766,545.9583,246.03484,545.9583 C244.37442,545.9583,243.15233,547.39294,243.15233,549.0401 C243.15233,550.74036,244.46739,552.0554,246.00827,552.0554 C247.78825,552.0554,248.21332,550.4614,248.21332,550.3286 Z M248.21332,550.3286 " fill="#000000" />
<desc fontName="OMYJDM+LMRoman10-Regular" rect="248.97713,545.9583,254.86171,552.0554" fontRect="248.6052,536.93884,255.24692,555.76154" ucode="6f">o</desc>
<path d="M254.8617,549.06665 C254.8617,547.3664,253.53336,545.9583,251.92606,545.9583 C250.26562,545.9583,248.97711,547.40625,248.97711,549.06665 C248.97711,550.7802,250.35861,552.0554,251.91277,552.0554 C253.52007,552.0554,254.8617,550.75366,254.8617,549.06665 Z M253.75919,548.9604 C253.75919,549.4386,253.75919,550.1559,253.46695,550.74036 C253.17471,551.33813,252.59024,551.7234,251.92606,551.7234 C251.35486,551.7234,250.77039,551.4444,250.41174,550.8334 C250.07965,550.2489,250.07965,549.4386,250.07965,548.9604 C250.07965,548.4423,250.07965,547.72504,250.39847,547.14056 C250.75711,546.52954,251.38144,546.25055,251.91277,546.25055 C252.49724,546.25055,253.06842,546.5428,253.4138,547.114 C253.75919,547.6852,253.75919,548.4556,253.75919,548.9604 Z M253.75919,548.9604 " fill="#000000" />
<desc fontName="OMYJDM+LMRoman10-Regular" rect="260.2282,543.06256,265.74088,552.20154" fontRect="259.67032,536.93884,266.31204,555.76154" ucode="33">3</desc>
<path d="M265.74084,549.6379 C265.74084,548.5486,264.904,547.5125,263.52252,547.2335 C264.61176,546.8749,265.3822,545.94507,265.3822,544.8956 C265.3822,543.8064,264.21326,543.06256,262.93805,543.06256 C261.59644,543.06256,260.58688,543.85956,260.58688,544.8691 C260.58688,545.30743,260.87912,545.5598,261.26434,545.5598 C261.67612,545.5598,261.94177,545.2676,261.94177,544.8824 C261.94177,544.2182,261.31747,544.2182,261.11823,544.2182 C261.53,543.5673,262.4067,543.39465,262.88492,543.39465 C263.42953,543.39465,264.16013,543.6869,264.16013,544.8824 C264.16013,545.04175,264.13354,545.8122,263.7882,546.39667 C263.3897,547.0343,262.93805,547.07416,262.60596,547.0874 C262.4997,547.1007,262.1809,547.12726,262.0879,547.12726 C261.98163,547.14056,261.88867,547.1539,261.88867,547.2867 C261.88867,547.4328,261.98163,547.4328,262.20746,547.4328 L262.79193,547.4328 C263.88116,547.4328,264.37268,548.33606,264.37268,549.6379 C264.37268,551.4444,263.45612,551.82965,262.87164,551.82965 C262.30045,551.82965,261.3042,551.6038,260.83926,550.82007 C261.3042,550.8865,261.71597,550.59424,261.71597,550.0895 C261.71597,549.61127,261.3573,549.34564,260.9721,549.34564 C260.6533,549.34564,260.2282,549.5316,260.2282,550.1161 C260.2282,551.3248,261.4636,552.20154,262.9115,552.20154 C264.53207,552.20154,265.74084,550.9928,265.74084,549.6379 Z M265.74084,549.6379 " fill="#000000" />
<desc fontName="OMYJDM+LMRoman10-Regular" rect="267.4544,546.18414,268.86246,551.9093" fontRect="266.31204,536.93884,270.0022,555.76154" ucode="3a">:</desc>
<path d="M268.8625,546.8882 C268.8625,546.5029,268.54367,546.18414,268.15845,546.18414 C267.77322,546.18414,267.4544,546.5029,267.4544,546.8882 C267.4544,547.2734,267.77322,547.5922,268.15845,547.5922 C268.54367,547.5922,268.8625,547.2734,268.8625,546.8882 Z M268.8625,551.2053 C268.8625,550.82007,268.54367,550.5013,268.15845,550.5013 C267.77322,550.5013,267.4544,550.82007,267.4544,551.2053 C267.4544,551.5905,267.77322,551.9093,268.15845,551.9093 C268.54367,551.9093,268.8625,551.5905,268.8625,551.2053 Z M268.8625,551.2053 " fill="#000000" />
<desc fontName="OMYJDM+LMRoman10-Regular" rect="276.3915,542.83673,284.56085,551.9093" fontRect="275.91333,536.93884,285.322,555.76154" ucode="42">B</desc>
<path d="M284.56085,549.47845 C284.56085,548.3228,283.47162,547.32654,281.99713,547.1671 C283.28564,546.91473,284.2022,546.0646,284.2022,545.0816 C284.2022,543.92596,282.98013,542.83673,281.25327,542.83673 L276.39154,542.83673 L276.39154,543.24854 L276.71033,543.24854 C277.73315,543.24854,277.7597,543.39465,277.7597,543.8728 L277.7597,550.8732 C277.7597,551.35144,277.73315,551.49756,276.71033,551.49756 L276.39154,551.49756 L276.39154,551.9093 L281.59863,551.9093 C283.36536,551.9093,284.56085,550.7271,284.56085,549.47845 Z M282.9137,545.0816 C282.9137,545.93176,282.26282,547.0476,280.78836,547.0476 L278.86224,547.0476 L278.86224,543.77985 C278.86224,543.3415,278.88882,543.24854,279.51312,543.24854 L281.16028,543.24854 C282.4488,543.24854,282.9137,544.3776,282.9137,545.0816 Z M283.2325,549.46515 C283.2325,550.4083,282.54178,551.49756,281.17358,551.49756 L279.51312,551.49756 C278.88882,551.49756,278.86224,551.40454,278.86224,550.9662 L278.86224,547.33984 L281.35956,547.33984 C282.67462,547.33984,283.2325,548.5752,283.2325,549.46515 Z M283.2325,549.46515 " fill="#000000" />
<desc fontName="OMYJDM+LMRoman10-Regular" rect="285.69394,545.9583,291.5785,552.0554" fontRect="285.322,536.93884,291.9637,555.76154" ucode="6f">o</desc>
<path d="M291.5785,549.06665 C291.5785,547.3664,290.25015,545.9583,288.64285,545.9583 C286.98242,545.9583,285.6939,547.40625,285.6939,549.06665 C285.6939,550.7802,287.0754,552.0554,288.62958,552.0554 C290.23688,552.0554,291.5785,550.75366,291.5785,549.06665 Z M290.47598,548.9604 C290.47598,549.4386,290.47598,550.1559,290.18375,550.74036 C289.8915,551.33813,289.30704,551.7234,288.64285,551.7234 C288.07166,551.7234,287.48718,551.4444,287.12854,550.8334 C286.79645,550.2489,286.79645,549.4386,286.79645,548.9604 C286.79645,548.4423,286.79645,547.72504,287.11526,547.14056 C287.4739,546.52954,288.09824,546.25055,288.62958,546.25055 C289.21405,546.25055,289.78522,546.5428,290.1306,547.114 C290.47598,547.6852,290.47598,548.4556,290.47598,548.9604 Z M290.47598,548.9604 " fill="#000000" />
<desc fontName="OMYJDM+LMRoman10-Regular" rect="291.7512,546.18414,298.44604,551.9093" fontRect="291.5918,536.93884,298.6028,555.76154" ucode="78">x</desc>
<path d="M298.44604,551.9093 L298.44604,551.49756 C297.72876,551.49756,297.48965,551.47095,297.18414,551.08575 L295.40414,548.7877 C295.80264,548.28296,296.30743,547.6321,296.62622,547.2867 C297.03802,546.8085,297.58264,546.60925,298.20697,546.59595 L298.20697,546.18414 C297.86157,546.2107,297.46307,546.224,297.1177,546.224 C296.7192,546.224,296.0152,546.19745,295.8425,546.18414 L295.8425,546.59595 C296.12146,546.6225,296.22772,546.79517,296.22772,547.00775 C296.22772,547.2203,296.09488,547.39294,296.02847,547.47266 L295.2049,548.5088 L294.16876,547.1671 C294.04922,547.0343,294.04922,547.00775,294.04922,546.92804 C294.04922,546.72876,294.24847,546.60925,294.51416,546.59595 L294.51416,546.18414 L293.07953,546.224 C292.8006,546.224,292.17627,546.2107,291.8176,546.18414 L291.8176,546.59595 C292.74744,546.59595,292.76074,546.60925,293.38507,547.40625 L294.70013,549.1198 C294.0758,549.9168,294.0758,549.94336,293.45148,550.70056 C292.81387,551.47095,292.03015,551.49756,291.7512,551.49756 L291.7512,551.9093 C292.09656,551.88275,292.50836,551.8695,292.8537,551.8695 L294.11566,551.9093 L294.11566,551.49756 C293.82343,551.4577,293.7304,551.28503,293.7304,551.08575 C293.7304,550.7935,294.11566,550.35516,294.92593,549.39874 L295.9355,550.7271 C296.04175,550.8732,296.21442,551.08575,296.21442,551.16547 C296.21442,551.28503,296.09488,551.48425,295.73624,551.49756 L295.73624,551.9093 L297.17084,551.8695 C297.52948,551.8695,298.04755,551.88275,298.44604,551.9093 Z M298.44604,551.9093 " fill="#000000" />
<desc fontName="OMYJDM+LMRoman10-Regular" rect="298.97473,546.038,305.52347,554.4863" fontRect="298.60278,536.93884,305.9831,555.76154" ucode="70">p</desc>
<path d="M305.5235,549.0401 C305.5235,547.3531,304.235,546.038,302.74725,546.038 C301.71112,546.038,301.15323,546.6225,300.88754,546.91473 L300.88754,546.038 L298.97473,546.18414 L298.97473,546.59595 C299.91785,546.59595,300.01083,546.67566,300.01083,547.26013 L300.01083,553.4768 C300.01083,554.0745,299.86472,554.0745,298.97473,554.0745 L298.97473,554.4863 L300.46246,554.4465 L301.9635,554.4863 L301.9635,554.0745 C301.07352,554.0745,300.9274,554.0745,300.9274,553.4768 L300.9274,551.2452 L300.9274,551.1256 C300.99384,551.33813,301.55173,552.0554,302.56128,552.0554 C304.142,552.0554,305.5235,550.75366,305.5235,549.0401 Z M304.42096,549.0401 C304.42096,550.6474,303.49112,551.7632,302.50812,551.7632 C301.9768,551.7632,301.47202,551.49756,301.11337,550.95294 C300.9274,550.67395,300.9274,550.6607,300.9274,550.395 L300.9274,547.4328 C301.31262,546.7554,301.9635,546.3701,302.64096,546.3701 C303.61066,546.3701,304.42096,547.53906,304.42096,549.0401 Z M304.42096,549.0401 " fill="#000000" />
<desc fontName="OMYJDM+LMRoman10-Regular" rect="306.42145,542.6906,309.37036,551.9093" fontRect="305.9831,536.93884,309.67322,555.76154" ucode="6c">l</desc>
<path d="M309.37036,551.9093 L309.37036,551.49756 C308.48038,551.49756,308.33426,551.49756,308.33426,550.8998 L308.33426,542.6906 L306.42145,542.83673 L306.42145,543.24854 C307.3513,543.24854,307.45755,543.3415,307.45755,543.9924 L307.45755,550.8998 C307.45755,551.49756,307.31143,551.49756,306.42145,551.49756 L306.42145,551.9093 L307.8959,551.8695 Z M307.8959,551.8695 " fill="#000000" />
<desc fontName="OMYJDM+LMRoman10-Regular" rect="310.04517,545.9583,315.92975,552.0554" fontRect="309.67322,536.93884,316.31497,555.76154" ucode="6f">o</desc>
<path d="M315.92975,549.06665 C315.92975,547.3664,314.60138,545.9583,312.99408,545.9583 C311.33368,545.9583,310.04517,547.40625,310.04517,549.06665 C310.04517,550.7802,311.42664,552.0554,312.9808,552.0554 C314.5881,552.0554,315.92975,550.75366,315.92975,549.06665 Z M314.8272,548.9604 C314.8272,549.4386,314.8272,550.1559,314.53497,550.74036 C314.24274,551.33813,313.65826,551.7234,312.99408,551.7234 C312.4229,551.7234,311.83844,551.4444,311.4798,550.8334 C311.1477,550.2489,311.1477,549.4386,311.1477,548.9604 C311.1477,548.4423,311.1477,547.72504,311.4665,547.14056 C311.82513,546.52954,312.44946,546.25055,312.9808,546.25055 C313.56528,546.25055,314.13647,546.5428,314.48184,547.114 C314.8272,547.6852,314.8272,548.4556,314.8272,548.9604 Z M314.8272,548.9604 " fill="#000000" />
<desc fontName="OMYJDM+LMRoman10-Regular" rect="316.56732,543.74,320.72507,552.0554" fontRect="316.31494,536.93884,321.4809,555.76154" ucode="74">t</desc>
<path d="M320.72507,550.2622 L320.72507,549.505 L320.39297,549.505 L320.39297,550.2356 C320.39297,551.21857,319.99448,551.7234,319.503,551.7234 C318.61298,551.7234,318.61298,550.5146,318.61298,550.28876 L318.61298,546.59595 L320.5125,546.59595 L320.5125,546.18414 L318.61298,546.18414 L318.61298,543.74 L318.2809,543.74 C318.26764,544.8292,317.8691,546.25055,316.56732,546.3037 L316.56732,546.59595 L317.69644,546.59595 L317.69644,550.2622 C317.69644,551.89606,318.9318,552.0554,319.41,552.0554 C320.35312,552.0554,320.72507,551.1123,320.72507,550.2622 Z M320.72507,550.2622 " fill="#000000" />
<desc fontName="OMYJDM+LMRoman10-Regular" rect="326.34265,542.5445,330.64648,551.9093" fontRect="325.9043,536.93884,329.9637,555.76154" ucode="66">f</desc>
<path d="M330.64648,543.4743 C330.64648,542.98285,330.155,542.5445,329.451,542.5445 C328.52112,542.5445,327.39203,543.24854,327.39203,544.65656 L327.39203,546.18414 L326.34265,546.18414 L326.34265,546.59595 L327.39203,546.59595 L327.39203,550.8998 C327.39203,551.49756,327.2459,551.49756,326.35593,551.49756 L326.35593,551.9093 L327.87024,551.8695 C328.40158,551.8695,329.0259,551.8695,329.55725,551.9093 L329.55725,551.49756 L329.2783,551.49756 C328.29532,551.49756,328.26874,551.35144,328.26874,550.8732 L328.26874,546.59595 L329.78305,546.59595 L329.78305,546.18414 L328.22888,546.18414 L328.22888,544.64325 C328.22888,543.4743,328.86652,542.83673,329.451,542.83673 C329.4908,542.83673,329.69006,542.83673,329.88934,542.9297 C329.72992,542.98285,329.4908,543.1555,329.4908,543.4876 C329.4908,543.79315,329.70337,544.0588,330.062,544.0588 C330.44724,544.0588,330.64648,543.79315,330.64648,543.4743 Z M330.64648,543.4743 " fill="#000000" />
<desc fontName="OMYJDM+LMRoman10-Regular" rect="330.3888,546.038,337.07037,552.0554" fontRect="329.9637,536.93884,337.344,555.76154" ucode="75">u</desc>
<path d="M337.07037,551.9093 L337.07037,551.49756 C336.14053,551.49756,336.03424,551.40454,336.03424,550.75366 L336.03424,546.038 L334.0816,546.18414 L334.0816,546.59595 C335.0114,546.59595,335.1177,546.6889,335.1177,547.33984 L335.1177,549.7043 C335.1177,550.8599,334.4801,551.7632,333.5104,551.7632 C332.3946,551.7632,332.34146,551.1389,332.34146,550.4481 L332.34146,546.038 L330.3888,546.18414 L330.3888,546.59595 C331.4249,546.59595,331.4249,546.6358,331.4249,547.818 L331.4249,549.81055 C331.4249,550.8467,331.4249,552.0554,333.44397,552.0554 C334.18787,552.0554,334.77234,551.68353,335.15753,550.8599 L335.15753,552.0554 Z M335.15753,552.0554 " fill="#000000" />
<desc fontName="OMYJDM+LMRoman10-Regular" rect="337.76907,546.038,344.45065,551.9093" fontRect="337.344,536.93884,344.7243,555.76154" ucode="6e">n</desc>
<path d="M344.45065,551.9093 L344.45065,551.49756 C343.75995,551.49756,343.42783,551.49756,343.41455,551.09906 L343.41455,548.5619 C343.41455,547.4195,343.41455,547.00775,343.00278,546.52954 C342.81677,546.3037,342.37842,546.038,341.608,546.038 C340.6383,546.038,340.01398,546.60925,339.64203,547.4328 L339.64203,546.038 L337.76907,546.18414 L337.76907,546.59595 C338.6989,546.59595,338.80518,546.6889,338.80518,547.33984 L338.80518,550.8998 C338.80518,551.49756,338.65906,551.49756,337.76907,551.49756 L337.76907,551.9093 L339.2701,551.8695 L340.75787,551.9093 L340.75787,551.49756 C339.86786,551.49756,339.72174,551.49756,339.72174,550.8998 L339.72174,548.4556 C339.72174,547.07416,340.66486,546.33026,341.515,546.33026 C342.35187,546.33026,342.498,547.0476,342.498,547.80475 L342.498,550.8998 C342.498,551.49756,342.35187,551.49756,341.46188,551.49756 L341.46188,551.9093 L342.9629,551.8695 Z M342.9629,551.8695 " fill="#000000" />
<desc fontName="OMYJDM+LMRoman10-Regular" rect="345.17593,545.9583,350.23694,552.0554" fontRect="344.7243,536.93884,350.62878,555.76154" ucode="63">c</desc>
<path d="M350.23694,550.3286 C350.23694,550.19574,350.1041,550.19574,350.06427,550.19574 C349.9447,550.19574,349.91815,550.2489,349.89157,550.3286 C349.50635,551.56396,348.6429,551.7234,348.15143,551.7234 C347.4474,551.7234,346.27844,551.15216,346.27844,549.01355 C346.27844,546.8483,347.36768,546.2904,348.07175,546.2904 C348.19128,546.2904,349.02814,546.3037,349.49304,546.7819 C348.94846,546.8218,348.86874,547.2203,348.86874,547.39294 C348.86874,547.73834,349.10785,548.00397,349.4798,548.00397 C349.82516,548.00397,350.09082,547.7782,350.09082,547.37964 C350.09082,546.4764,349.08127,545.9583,348.05844,545.9583 C346.398,545.9583,345.1759,547.39294,345.1759,549.0401 C345.1759,550.74036,346.49097,552.0554,348.03186,552.0554 C349.81186,552.0554,350.23694,550.4614,350.23694,550.3286 Z M350.23694,550.3286 " fill="#000000" />
<desc fontName="OMYJDM+LMRoman10-Regular" rect="351.06714,543.18207,353.90982,551.9093" fontRect="350.62878,536.93884,354.31894,555.76154" ucode="69">i</desc>
<path d="M353.9098,551.9093 L353.9098,551.49756 C353.03308,551.49756,352.97995,551.43115,352.97995,550.9131 L352.97995,546.038 L351.1203,546.18414 L351.1203,546.59595 C351.9837,546.59595,352.10324,546.67566,352.10324,547.32654 L352.10324,550.8998 C352.10324,551.49756,351.95712,551.49756,351.06714,551.49756 L351.06714,551.9093 L352.52832,551.8695 C352.99326,551.8695,353.4582,551.89606,353.9098,551.9093 Z M353.1792,543.8861 C353.1792,543.52747,352.87372,543.18207,352.4752,543.18207 C352.02356,543.18207,351.7579,543.554,351.7579,543.8861 C351.7579,544.24475,352.06342,544.59015,352.4619,544.59015 C352.91354,544.59015,353.1792,544.2182,353.1792,543.8861 Z M353.1792,543.8861 " fill="#000000" />
<desc fontName="OMYJDM+LMRoman10-Regular" rect="354.6909,545.9583,360.57544,552.0554" fontRect="354.31894,536.93884,360.96066,555.76154" ucode="6f">o</desc>
<path d="M360.57544,549.06665 C360.57544,547.3664,359.24713,545.9583,357.63983,545.9583 C355.97937,545.9583,354.6909,547.40625,354.6909,549.06665 C354.6909,550.7802,356.07236,552.0554,357.62653,552.0554 C359.23383,552.0554,360.57544,550.75366,360.57544,549.06665 Z M359.4729,548.9604 C359.4729,549.4386,359.4729,550.1559,359.18066,550.74036 C358.88843,551.33813,358.30396,551.7234,357.63983,551.7234 C357.0686,551.7234,356.48413,551.4444,356.1255,550.8334 C355.7934,550.2489,355.7934,549.4386,355.7934,548.9604 C355.7934,548.4423,355.7934,547.72504,356.11218,547.14056 C356.4709,546.52954,357.09518,546.25055,357.62653,546.25055 C358.211,546.25055,358.7822,546.5428,359.12756,547.114 C359.4729,547.6852,359.4729,548.4556,359.4729,548.9604 Z M359.4729,548.9604 " fill="#000000" />
<desc fontName="OMYJDM+LMRoman10-Regular" rect="361.38574,546.038,368.06732,551.9093" fontRect="360.96066,536.93884,368.34094,555.76154" ucode="6e">n</desc>
<path d="M368.06732,551.9093 L368.06732,551.49756 C367.3766,551.49756,367.0445,551.49756,367.03122,551.09906 L367.03122,548.5619 C367.03122,547.4195,367.03122,547.00775,366.61945,546.52954 C366.43344,546.3037,365.9951,546.038,365.22467,546.038 C364.25497,546.038,363.6306,546.60925,363.25873,547.4328 L363.25873,546.038 L361.38574,546.18414 L361.38574,546.59595 C362.31555,546.59595,362.42184,546.6889,362.42184,547.33984 L362.42184,550.8998 C362.42184,551.49756,362.27573,551.49756,361.38574,551.49756 L361.38574,551.9093 L362.88678,551.8695 L364.3745,551.9093 L364.3745,551.49756 C363.4845,551.49756,363.33838,551.49756,363.33838,550.8998 L363.33838,548.4556 C363.33838,547.07416,364.28156,546.33026,365.13168,546.33026 C365.9685,546.33026,366.11462,547.0476,366.11462,547.80475 L366.11462,550.8998 C366.11462,551.49756,365.9685,551.49756,365.07855,551.49756 L365.07855,551.9093 L366.57956,551.8695 Z M366.57956,551.8695 " fill="#000000" />
<desc fontName="OMYJDM+LMRoman10-Regular" rect="368.76602,545.9583,374.75687,552.0554" fontRect="368.34094,536.93884,374.9827,555.76154" ucode="61">a</desc>
<path d="M374.7569,550.7271 L374.7569,549.9832 L374.42477,549.9832 L374.42477,550.7271 C374.42477,551.49756,374.0927,551.5773,373.9466,551.5773 C373.50824,551.5773,373.45508,550.9795,373.45508,550.9131 L373.45508,548.25635 C373.45508,547.6985,373.45508,547.1804,372.9769,546.6889 C372.45883,546.1709,371.79465,545.9583,371.15704,545.9583 C370.0678,545.9583,369.15125,546.58264,369.15125,547.45935 C369.15125,547.85785,369.41693,548.0837,369.7623,548.0837 C370.13422,548.0837,370.37335,547.818,370.37335,547.47266 C370.37335,547.31323,370.3069,546.8749,369.69586,546.86163 C370.05453,546.39667,370.7054,546.25055,371.13046,546.25055 C371.78137,546.25055,372.53854,546.7686,372.53854,547.95087 L372.53854,548.4423 C371.86105,548.4822,370.93124,548.52203,370.09436,548.92053 C369.0981,549.3722,368.76605,550.0629,368.76605,550.6474 C368.76605,551.7234,370.05453,552.0554,370.89136,552.0554 C371.76807,552.0554,372.37912,551.5241,372.63153,550.8998 C372.68466,551.43115,373.0433,551.989,373.6676,551.989 C373.9466,551.989,374.7569,551.80304,374.7569,550.7271 Z M372.53854,550.0496 C372.53854,551.3116,371.58212,551.7632,370.98434,551.7632 C370.33347,551.7632,369.78888,551.2983,369.78888,550.6341 C369.78888,549.9035,370.34677,548.801,372.53854,548.7213 Z M372.53854,548.7213 " fill="#000000" />
<desc fontName="OMYJDM+LMRoman10-Regular" rect="375.42102,542.6906,378.36996,551.9093" fontRect="374.98267,536.93884,378.67282,555.76154" ucode="6c">l</desc>
<path d="M378.36996,551.9093 L378.36996,551.49756 C377.47995,551.49756,377.33383,551.49756,377.33383,550.8998 L377.33383,542.6906 L375.42102,542.83673 L375.42102,543.24854 C376.3509,543.24854,376.45712,543.3415,376.45712,543.9924 L376.45712,550.8998 C376.45712,551.49756,376.311,551.49756,375.42102,551.49756 L375.42102,551.9093 L376.89548,551.8695 Z M376.89548,551.8695 " fill="#000000" />
<desc fontName="OMYJDM+LMRoman10-Regular" rect="383.46814,546.038,390.01688,554.4863" fontRect="383.0962,536.93884,390.4765,555.76154" ucode="70">p</desc>
<path d="M390.0169,549.0401 C390.0169,547.3531,388.7284,546.038,387.24066,546.038 C386.20453,546.038,385.6466,546.6225,385.38095,546.91473 L385.38095,546.038 L383.46814,546.18414 L383.46814,546.59595 C384.41125,546.59595,384.50424,546.67566,384.50424,547.26013 L384.50424,553.4768 C384.50424,554.0745,384.35812,554.0745,383.46814,554.0745 L383.46814,554.4863 L384.9559,554.4465 L386.4569,554.4863 L386.4569,554.0745 C385.56696,554.0745,385.42084,554.0745,385.42084,553.4768 L385.42084,551.2452 L385.42084,551.1256 C385.48724,551.33813,386.04514,552.0554,387.05466,552.0554 C388.63544,552.0554,390.0169,550.75366,390.0169,549.0401 Z M388.91437,549.0401 C388.91437,550.6474,387.9845,551.7632,387.00156,551.7632 C386.47018,551.7632,385.96542,551.49756,385.60678,550.95294 C385.42084,550.67395,385.42084,550.6607,385.42084,550.395 L385.42084,547.4328 C385.80603,546.7554,386.4569,546.3701,387.13437,546.3701 C388.10406,546.3701,388.91437,547.53906,388.91437,549.0401 Z M388.91437,549.0401 " fill="#000000" />
<desc fontName="OMYJDM+LMRoman10-Regular" rect="390.90155,545.9583,396.8924,552.0554" fontRect="390.4765,536.93884,397.11823,555.76154" ucode="61">a</desc>
<path d="M396.89243,550.7271 L396.89243,549.9832 L396.5603,549.9832 L396.5603,550.7271 C396.5603,551.49756,396.22824,551.5773,396.08212,551.5773 C395.64377,551.5773,395.59064,550.9795,395.59064,550.9131 L395.59064,548.25635 C395.59064,547.6985,395.59064,547.1804,395.11243,546.6889 C394.59436,546.1709,393.93018,545.9583,393.29257,545.9583 C392.20334,545.9583,391.2868,546.58264,391.2868,547.45935 C391.2868,547.85785,391.55246,548.0837,391.89783,548.0837 C392.26974,548.0837,392.50888,547.818,392.50888,547.47266 C392.50888,547.31323,392.44244,546.8749,391.8314,546.86163 C392.19006,546.39667,392.84094,546.25055,393.266,546.25055 C393.91693,546.25055,394.67407,546.7686,394.67407,547.95087 L394.67407,548.4423 C393.99658,548.4822,393.06677,548.52203,392.22992,548.92053 C391.23364,549.3722,390.90158,550.0629,390.90158,550.6474 C390.90158,551.7234,392.19006,552.0554,393.02692,552.0554 C393.90363,552.0554,394.51465,551.5241,394.76706,550.8998 C394.8202,551.43115,395.17883,551.989,395.80316,551.989 C396.08212,551.989,396.89243,551.80304,396.89243,550.7271 Z M394.67407,550.0496 C394.67407,551.3116,393.71765,551.7632,393.11987,551.7632 C392.469,551.7632,391.9244,551.2983,391.9244,550.6341 C391.9244,549.9035,392.4823,548.801,394.67407,548.7213 Z M394.67407,548.7213 " fill="#000000" />
<desc fontName="OMYJDM+LMRoman10-Regular" rect="397.49014,546.038,401.9534,551.9093" fontRect="397.11823,536.93884,402.32135,555.76154" ucode="72">r</desc>
<path d="M401.95337,546.8483 C401.95337,546.4233,401.5416,546.038,400.97043,546.038 C400.00073,546.038,399.52252,546.92804,399.33655,547.4992 L399.33655,546.038 L397.49017,546.18414 L397.49017,546.59595 C398.42,546.59595,398.52625,546.6889,398.52625,547.33984 L398.52625,550.8998 C398.52625,551.49756,398.38013,551.49756,397.49017,551.49756 L397.49017,551.9093 L399.0045,551.8695 C399.53583,551.8695,400.16013,551.8695,400.69147,551.9093 L400.69147,551.49756 L400.41254,551.49756 C399.42953,551.49756,399.40295,551.35144,399.40295,550.8732 L399.40295,548.8276 C399.40295,547.5125,399.96088,546.33026,400.97043,546.33026 C401.06342,546.33026,401.08997,546.33026,401.11655,546.34357 C401.07666,546.3568,400.811,546.51624,400.811,546.86163 C400.811,547.2335,401.08997,547.4328,401.3822,547.4328 C401.6213,547.4328,401.95337,547.2734,401.95337,546.8483 Z M401.95337,546.8483 " fill="#000000" />
<desc fontName="OMYJDM+LMRoman10-Regular" rect="402.7464,545.9583,408.73724,552.0554" fontRect="402.32135,536.93884,408.96307,555.76154" ucode="61">a</desc>
<path d="M408.73727,550.7271 L408.73727,549.9832 L408.40515,549.9832 L408.40515,550.7271 C408.40515,551.49756,408.0731,551.5773,407.92697,551.5773 C407.48862,551.5773,407.4355,550.9795,407.4355,550.9131 L407.4355,548.25635 C407.4355,547.6985,407.4355,547.1804,406.95728,546.6889 C406.4392,546.1709,405.77502,545.9583,405.13742,545.9583 C404.0482,545.9583,403.13165,546.58264,403.13165,547.45935 C403.13165,547.85785,403.3973,548.0837,403.74268,548.0837 C404.1146,548.0837,404.35373,547.818,404.35373,547.47266 C404.35373,547.31323,404.2873,546.8749,403.67624,546.86163 C404.0349,546.39667,404.6858,546.25055,405.11084,546.25055 C405.76178,546.25055,406.51892,546.7686,406.51892,547.95087 L406.51892,548.4423 C405.84143,548.4822,404.91162,548.52203,404.07477,548.92053 C403.0785,549.3722,402.74643,550.0629,402.74643,550.6474 C402.74643,551.7234,404.0349,552.0554,404.87177,552.0554 C405.74847,552.0554,406.3595,551.5241,406.6119,550.8998 C406.66504,551.43115,407.02368,551.989,407.648,551.989 C407.92697,551.989,408.73727,551.80304,408.73727,550.7271 Z M406.51892,550.0496 C406.51892,551.3116,405.5625,551.7632,404.96472,551.7632 C404.31384,551.7632,403.76926,551.2983,403.76926,550.6341 C403.76926,549.9035,404.32715,548.801,406.51892,548.7213 Z M406.51892,548.7213 " fill="#000000" />
<desc fontName="OMYJDM+LMRoman10-Regular" rect="413.7584,545.9583,418.89908,552.0554" fontRect="413.38644,536.93884,419.29095,555.76154" ucode="65">e</desc>
<path d="M418.8991,550.3286 C418.8991,550.19574,418.79282,550.1692,418.7264,550.1692 C418.60687,550.1692,418.5803,550.2489,418.5537,550.35516 C418.0888,551.7234,416.89328,551.7234,416.76044,551.7234 C416.09628,551.7234,415.56494,551.3248,415.2594,550.8334 C414.8609,550.19574,414.8609,549.31903,414.8609,548.8408 L418.567,548.8408 C418.85922,548.8408,418.8991,548.8408,418.8991,548.5619 C418.8991,547.2468,418.18176,545.9583,416.52133,545.9583 C414.98047,545.9583,413.7584,547.32654,413.7584,548.98694 C413.7584,550.76697,415.15314,552.0554,416.68076,552.0554 C418.30133,552.0554,418.8991,550.581,418.8991,550.3286 Z M418.0224,548.5619 L414.8742,548.5619 C414.95392,546.58264,416.0697,546.25055,416.52133,546.25055 C417.88953,546.25055,418.0224,548.0438,418.0224,548.5619 Z M418.0224,548.5619 " fill="#000000" />
<desc fontName="OMYJDM+LMRoman10-Regular" rect="419.7293,542.6906,422.67822,551.9093" fontRect="419.29095,536.93884,422.98108,555.76154" ucode="6c">l</desc>
<path d="M422.67822,551.9093 L422.67822,551.49756 C421.7882,551.49756,421.6421,551.49756,421.6421,550.8998 L421.6421,542.6906 L419.7293,542.83673 L419.7293,543.24854 C420.65915,543.24854,420.76538,543.3415,420.76538,543.9924 L420.76538,550.8998 C420.76538,551.49756,420.61926,551.49756,419.7293,551.49756 L419.7293,551.9093 L421.20374,551.8695 Z M421.20374,551.8695 " fill="#000000" />
<desc fontName="OMYJDM+LMRoman10-Regular" rect="427.7897,545.8919,433.86026,554.64575" fontRect="427.4178,536.93884,434.0595,555.76154" ucode="67">g</desc>
<path d="M433.86023,546.5428 C433.86023,546.317,433.70087,545.8919,433.1828,545.8919 C432.9171,545.8919,432.33264,545.9716,431.77475,546.51624 C431.21686,546.0779,430.65894,546.038,430.3667,546.038 C429.13135,546.038,428.21478,546.9546,428.21478,547.9774 C428.21478,548.5619,428.50702,549.06665,428.8391,549.34564 C428.66644,549.54486,428.42734,549.9832,428.42734,550.4481 C428.42734,550.8599,428.59998,551.3647,429.0118,551.6304 C428.21478,551.8562,427.78973,552.42737,427.78973,552.95874 C427.78973,553.91516,429.1048,554.64575,430.72534,554.64575 C432.29282,554.64575,433.6743,553.96826,433.6743,552.9321 C433.6743,552.4672,433.48834,551.7898,432.81088,551.41785 C432.1068,551.0459,431.3364,551.0459,430.5261,551.0459 C430.19403,551.0459,429.6228,551.0459,429.52985,551.0326 C429.1048,550.9795,428.8258,550.5677,428.8258,550.14264 C428.8258,550.0895,428.8258,549.784,429.05164,549.5183 C429.5697,549.89026,430.11432,549.9301,430.3667,549.9301 C431.60205,549.9301,432.51865,549.01355,432.51865,547.9907 C432.51865,547.4992,432.3061,547.00775,431.974,546.7022 C432.4522,546.25055,432.93042,546.18414,433.16953,546.18414 C433.16953,546.18414,433.2625,546.18414,433.30234,546.19745 C433.15622,546.25055,433.0898,546.39667,433.0898,546.5561 C433.0898,546.7819,433.2625,546.9413,433.47504,546.9413 C433.60788,546.9413,433.86023,546.8483,433.86023,546.5428 Z M431.52234,547.9774 C431.52234,548.33606,431.5091,548.76117,431.3098,549.09326 C431.20358,549.2526,430.89804,549.6246,430.3667,549.6246 C429.21103,549.6246,429.21103,548.2962,429.21103,547.9907 C429.21103,547.6321,429.22433,547.207,429.42358,546.8749 C429.52985,546.7155,429.8354,546.34357,430.3667,546.34357 C431.52234,546.34357,431.52234,547.6719,431.52234,547.9774 Z M432.98352,552.95874 C432.98352,553.676,432.0404,554.3402,430.73865,554.3402 C429.39703,554.3402,428.48044,553.6627,428.48044,552.95874 C428.48044,552.34766,428.98523,551.8562,429.5697,551.81635 L430.3534,551.81635 C431.49582,551.81635,432.98352,551.81635,432.98352,552.95874 Z M432.98352,552.95874 " fill="#000000" />
<desc fontName="OMYJDM+LMRoman10-Regular" rect="434.43143,546.038,438.89468,551.9093" fontRect="434.0595,536.93884,439.26263,555.76154" ucode="72">r</desc>
<path d="M438.89465,546.8483 C438.89465,546.4233,438.48288,546.038,437.9117,546.038 C436.94202,546.038,436.4638,546.92804,436.27783,547.4992 L436.27783,546.038 L434.43146,546.18414 L434.43146,546.59595 C435.3613,546.59595,435.46753,546.6889,435.46753,547.33984 L435.46753,550.8998 C435.46753,551.49756,435.3214,551.49756,434.43146,551.49756 L434.43146,551.9093 L435.94577,551.8695 C436.4771,551.8695,437.1014,551.8695,437.63275,551.9093 L437.63275,551.49756 L437.35382,551.49756 C436.37082,551.49756,436.34424,551.35144,436.34424,550.8732 L436.34424,548.8276 C436.34424,547.5125,436.90216,546.33026,437.9117,546.33026 C438.0047,546.33026,438.03125,546.33026,438.05783,546.34357 C438.01794,546.3568,437.7523,546.51624,437.7523,546.86163 C437.7523,547.2335,438.03125,547.4328,438.3235,547.4328 C438.5626,547.4328,438.89465,547.2734,438.89465,546.8483 Z M438.89465,546.8483 " fill="#000000" />
<desc fontName="OMYJDM+LMRoman10-Regular" rect="439.68768,546.038,446.3693,552.0554" fontRect="439.26263,536.93884,446.6429,555.76154" ucode="75">u</desc>
<path d="M446.36926,551.9093 L446.36926,551.49756 C445.43942,551.49756,445.3332,551.40454,445.3332,550.75366 L445.3332,546.038 L443.3805,546.18414 L443.3805,546.59595 C444.31036,546.59595,444.4166,546.6889,444.4166,547.33984 L444.4166,549.7043 C444.4166,550.8599,443.77902,551.7632,442.8093,551.7632 C441.69348,551.7632,441.64035,551.1389,441.64035,550.4481 L441.64035,546.038 L439.6877,546.18414 L439.6877,546.59595 C440.72382,546.59595,440.72382,546.6358,440.72382,547.818 L440.72382,549.81055 C440.72382,550.8467,440.72382,552.0554,442.7429,552.0554 C443.4868,552.0554,444.07126,551.68353,444.45648,550.8599 L444.45648,552.0554 Z M444.45648,552.0554 " fill="#000000" />
<desc fontName="OMYJDM+LMRoman10-Regular" rect="447.01486,546.038,453.5636,554.4863" fontRect="446.6429,536.93884,454.02322,555.76154" ucode="70">p</desc>
<path d="M453.5636,549.0401 C453.5636,547.3531,452.27512,546.038,450.78735,546.038 C449.75122,546.038,449.19333,546.6225,448.92767,546.91473 L448.92767,546.038 L447.01486,546.18414 L447.01486,546.59595 C447.95798,546.59595,448.05096,546.67566,448.05096,547.26013 L448.05096,553.4768 C448.05096,554.0745,447.90485,554.0745,447.01486,554.0745 L447.01486,554.4863 L448.50262,554.4465 L450.00363,554.4863 L450.00363,554.0745 C449.11365,554.0745,448.96753,554.0745,448.96753,553.4768 L448.96753,551.2452 L448.96753,551.1256 C449.03394,551.33813,449.59186,552.0554,450.60138,552.0554 C452.18213,552.0554,453.5636,550.75366,453.5636,549.0401 Z M452.46106,549.0401 C452.46106,550.6474,451.53122,551.7632,450.54828,551.7632 C450.0169,551.7632,449.51215,551.49756,449.1535,550.95294 C448.96753,550.67395,448.96753,550.6607,448.96753,550.395 L448.96753,547.4328 C449.35275,546.7554,450.00363,546.3701,450.6811,546.3701 C451.65076,546.3701,452.46106,547.53906,452.46106,549.0401 Z M452.46106,549.0401 " fill="#000000" />
<desc fontName="OMYJDM+LMRoman10-Regular" rect="454.75378,545.9583,460.63837,552.0554" fontRect="454.38184,536.93884,461.0236,555.76154" ucode="6f">o</desc>
<path d="M460.63837,549.06665 C460.63837,547.3664,459.31003,545.9583,457.70273,545.9583 C456.0423,545.9583,454.75378,547.40625,454.75378,549.06665 C454.75378,550.7802,456.13525,552.0554,457.68942,552.0554 C459.29672,552.0554,460.63837,550.75366,460.63837,549.06665 Z M459.53583,548.9604 C459.53583,549.4386,459.53583,550.1559,459.2436,550.74036 C458.95135,551.33813,458.36688,551.7234,457.70273,551.7234 C457.13153,551.7234,456.54706,551.4444,456.18842,550.8334 C455.8563,550.2489,455.8563,549.4386,455.8563,548.9604 C455.8563,548.4423,455.8563,547.72504,456.1751,547.14056 C456.53378,546.52954,457.15808,546.25055,457.68942,546.25055 C458.2739,546.25055,458.8451,546.5428,459.1905,547.114 C459.53583,547.6852,459.53583,548.4556,459.53583,548.9604 Z M459.53583,548.9604 " fill="#000000" />
<desc fontName="OMYJDM+LMRoman10-Regular" rect="465.9119,542.6906,472.46063,552.0554" fontRect="465.46027,536.93884,472.84055,555.76154" ucode="64">d</desc>
<path d="M472.46066,551.9093 L472.46066,551.49756 C471.53082,551.49756,471.42453,551.40454,471.42453,550.75366 L471.42453,542.6906 L469.51172,542.83673 L469.51172,543.24854 C470.44153,543.24854,470.54782,543.3415,470.54782,543.9924 L470.54782,546.86163 C470.1626,546.3834,469.5914,546.038,468.8741,546.038 C467.30664,546.038,465.91187,547.33984,465.91187,549.0534 C465.91187,550.74036,467.21368,552.0554,468.728,552.0554 C469.57812,552.0554,470.17587,551.6038,470.508,551.1787 L470.508,552.0554 Z M470.508,550.34186 C470.508,550.581,470.508,550.60754,470.36188,550.8334 C469.96335,551.47095,469.3656,551.7632,468.7944,551.7632 C468.19666,551.7632,467.71844,551.41785,467.39963,550.9131 C467.0543,550.36847,467.0144,549.61127,467.0144,549.06665 C467.0144,548.5752,467.041,547.7782,467.4262,547.1804 C467.70517,546.7686,468.20993,546.33026,468.92725,546.33026 C469.39218,546.33026,469.95007,546.52954,470.36188,547.12726 C470.508,547.3531,470.508,547.37964,470.508,547.6188 Z M470.508,547.6188 " fill="#000000" />
<desc fontName="OMYJDM+LMRoman10-Regular" rect="473.2125,545.9583,478.35318,552.0554" fontRect="472.84055,536.93884,478.74506,555.76154" ucode="65">e</desc>
<path d="M478.3532,550.3286 C478.3532,550.19574,478.24692,550.1692,478.1805,550.1692 C478.06097,550.1692,478.0344,550.2489,478.0078,550.35516 C477.5429,551.7234,476.34738,551.7234,476.21454,551.7234 C475.55038,551.7234,475.01904,551.3248,474.7135,550.8334 C474.315,550.19574,474.315,549.31903,474.315,548.8408 L478.0211,548.8408 C478.31332,548.8408,478.3532,548.8408,478.3532,548.5619 C478.3532,547.2468,477.63586,545.9583,475.97543,545.9583 C474.43457,545.9583,473.2125,547.32654,473.2125,548.98694 C473.2125,550.76697,474.60724,552.0554,476.13486,552.0554 C477.75543,552.0554,478.3532,550.581,478.3532,550.3286 Z M477.4765,548.5619 L474.3283,548.5619 C474.40802,546.58264,475.5238,546.25055,475.97543,546.25055 C477.34363,546.25055,477.4765,548.0438,477.4765,548.5619 Z M477.4765,548.5619 " fill="#000000" />
<desc fontName="OMYJDM+LMRoman10-Regular" rect="483.62006,545.9583,488.68106,552.0554" fontRect="483.16843,536.93884,489.07294,555.76154" ucode="63">c</desc>
<path d="M488.6811,550.3286 C488.6811,550.19574,488.54822,550.19574,488.5084,550.19574 C488.38885,550.19574,488.36227,550.2489,488.3357,550.3286 C487.9505,551.56396,487.08704,551.7234,486.59555,551.7234 C485.89154,551.7234,484.7226,551.15216,484.7226,549.01355 C484.7226,546.8483,485.81183,546.2904,486.51587,546.2904 C486.63544,546.2904,487.47226,546.3037,487.9372,546.7819 C487.39258,546.8218,487.31287,547.2203,487.31287,547.39294 C487.31287,547.73834,487.55197,548.00397,487.92392,548.00397 C488.2693,548.00397,488.53497,547.7782,488.53497,547.37964 C488.53497,546.4764,487.5254,545.9583,486.50256,545.9583 C484.84213,545.9583,483.62006,547.39294,483.62006,549.0401 C483.62006,550.74036,484.93512,552.0554,486.476,552.0554 C488.25598,552.0554,488.6811,550.4614,488.6811,550.3286 Z M488.6811,550.3286 " fill="#000000" />
<desc fontName="OMYJDM+LMRoman10-Regular" rect="489.49802,546.038,496.1796,552.0554" fontRect="489.07294,536.93884,496.45322,555.76154" ucode="75">u</desc>
<path d="M496.17957,551.9093 L496.17957,551.49756 C495.24973,551.49756,495.1435,551.40454,495.1435,550.75366 L495.1435,546.038 L493.1908,546.18414 L493.1908,546.59595 C494.12067,546.59595,494.2269,546.6889,494.2269,547.33984 L494.2269,549.7043 C494.2269,550.8599,493.58932,551.7632,492.6196,551.7632 C491.50378,551.7632,491.45065,551.1389,491.45065,550.4481 L491.45065,546.038 L489.49802,546.18414 L489.49802,546.59595 C490.53412,546.59595,490.53412,546.6358,490.53412,547.818 L490.53412,549.81055 C490.53412,550.8467,490.53412,552.0554,492.5532,552.0554 C493.2971,552.0554,493.88156,551.68353,494.26678,550.8599 L494.26678,552.0554 Z M494.26678,552.0554 " fill="#000000" />
<desc fontName="OMYJDM+LMRoman10-Regular" rect="496.82516,546.038,501.2884,551.9093" fontRect="496.45322,536.93884,501.65634,555.76154" ucode="72">r</desc>
<path d="M501.2884,546.8483 C501.2884,546.4233,500.8766,546.038,500.30542,546.038 C499.33575,546.038,498.8575,546.92804,498.67157,547.4992 L498.67157,546.038 L496.82516,546.18414 L496.82516,546.59595 C497.755,546.59595,497.86127,546.6889,497.86127,547.33984 L497.86127,550.8998 C497.86127,551.49756,497.71515,551.49756,496.82516,551.49756 L496.82516,551.9093 L498.33948,551.8695 C498.87082,551.8695,499.49512,551.8695,500.02646,551.9093 L500.02646,551.49756 L499.74753,551.49756 C498.76453,551.49756,498.73798,551.35144,498.73798,550.8732 L498.73798,548.8276 C498.73798,547.5125,499.29587,546.33026,500.30542,546.33026 C500.3984,546.33026,500.425,546.33026,500.45154,546.34357 C500.41168,546.3568,500.146,546.51624,500.146,546.86163 C500.146,547.2335,500.425,547.4328,500.71722,547.4328 C500.9563,547.4328,501.2884,547.2734,501.2884,546.8483 Z M501.2884,546.8483 " fill="#000000" />
<desc fontName="OMYJDM+LMRoman10-Regular" rect="501.90872,546.18414,508.40436,552.0554" fontRect="501.65634,536.93884,508.66736,555.76154" ucode="76">v</desc>
<path d="M508.40436,546.59595 L508.40436,546.18414 C508.09882,546.2107,507.7136,546.224,507.40808,546.224 L506.2524,546.18414 L506.2524,546.59595 C506.7439,546.60925,506.89,546.91473,506.89,547.1671 C506.89,547.2867,506.86346,547.33984,506.8103,547.48596 L505.4554,550.8732 L503.96765,547.1671 C503.88794,546.99445,503.88794,546.9413,503.88794,546.9413 C503.88794,546.59595,504.406,546.59595,504.6451,546.59595 L504.6451,546.18414 L503.19724,546.224 C502.83856,546.224,502.30722,546.2107,501.90875,546.18414 L501.90875,546.59595 C502.74557,546.59595,502.7987,546.67566,502.9714,547.0874 L504.88422,551.80304 C504.96393,551.989,504.99048,552.0554,505.16318,552.0554 C505.33588,552.0554,505.389,551.9359,505.44214,551.80304 L507.18225,547.48596 C507.30182,547.1804,507.52765,546.60925,508.40436,546.59595 Z M508.40436,546.59595 " fill="#000000" />
<desc fontName="OMYJDM+LMRoman10-Regular" rect="508.3486,545.9583,514.3394,552.0554" fontRect="507.92352,536.93884,514.56525,555.76154" ucode="61">a</desc>
<path d="M514.3395,550.7271 L514.3395,549.9832 L514.0073,549.9832 L514.0073,550.7271 C514.0073,551.49756,513.6753,551.5773,513.5292,551.5773 C513.0908,551.5773,513.03766,550.9795,513.03766,550.9131 L513.03766,548.25635 C513.03766,547.6985,513.03766,547.1804,512.55945,546.6889 C512.0414,546.1709,511.3772,545.9583,510.7396,545.9583 C509.65036,545.9583,508.73383,546.58264,508.73383,547.45935 C508.73383,547.85785,508.99948,548.0837,509.34485,548.0837 C509.71677,548.0837,509.9559,547.818,509.9559,547.47266 C509.9559,547.31323,509.88947,546.8749,509.2784,546.86163 C509.6371,546.39667,510.28796,546.25055,510.713,546.25055 C511.36395,546.25055,512.1211,546.7686,512.1211,547.95087 L512.1211,548.4423 C511.4436,548.4822,510.5138,548.52203,509.67694,548.92053 C508.68066,549.3722,508.3486,550.0629,508.3486,550.6474 C508.3486,551.7234,509.6371,552.0554,510.47394,552.0554 C511.35065,552.0554,511.96167,551.5241,512.2141,550.8998 C512.2672,551.43115,512.62585,551.989,513.2502,551.989 C513.5292,551.989,514.3395,551.80304,514.3395,550.7271 Z M512.1211,550.0496 C512.1211,551.3116,511.16467,551.7632,510.5669,551.7632 C509.91602,551.7632,509.37143,551.2983,509.37143,550.6341 C509.37143,549.9035,509.92932,548.801,512.1211,548.7213 Z M512.1211,548.7213 " fill="#000000" />
<desc fontName="OMYJDM+LMRoman10-Regular" rect="515.0036,545.9583,519.3473,552.0554" fontRect="514.56525,536.93884,519.80554,555.76154" ucode="73">s</desc>
<path d="M519.3473,550.20905 C519.3473,549.505,518.9488,549.1065,518.7894,548.94714 C518.3511,548.52203,517.833,548.4158,517.2751,548.3095 C516.5312,548.1634,515.64124,547.9907,515.64124,547.2203 C515.64124,546.7554,515.9866,546.2107,517.12897,546.2107 C518.59015,546.2107,518.65656,547.40625,518.6831,547.818 C518.6964,547.93756,518.8425,547.93756,518.8425,547.93756 C519.0152,547.93756,519.0152,547.87115,519.0152,547.6188 L519.0152,546.27716 C519.0152,546.05133,519.0152,545.9583,518.8691,545.9583 C518.8027,545.9583,518.7761,545.9583,518.6034,546.11774 C518.5636,546.1709,518.4307,546.2904,518.37756,546.33026 C517.8728,545.9583,517.32825,545.9583,517.12897,545.9583 C515.50836,545.9583,515.0036,546.8483,515.0036,547.5922 C515.0036,548.0571,515.2161,548.4291,515.5748,548.7213 C515.9999,549.06665,516.3718,549.14636,517.32825,549.33234 C517.6205,549.3855,518.7097,549.598,518.7097,550.55444 C518.7097,551.2319,518.24475,551.7632,517.2086,551.7632 C516.09283,551.7632,515.6146,551.00604,515.36224,549.87695 C515.3224,549.7043,515.3091,549.6511,515.1763,549.6511 C515.0036,549.6511,515.0036,549.74414,515.0036,549.9832 L515.0036,551.73663 C515.0036,551.96246,515.0036,552.0554,515.1497,552.0554 C515.2161,552.0554,515.22943,552.0422,515.4818,551.7898 C515.50836,551.7632,515.50836,551.73663,515.74744,551.48425 C516.3319,552.0422,516.9297,552.0554,517.2086,552.0554 C518.73627,552.0554,519.3473,551.16547,519.3473,550.20905 Z M519.3473,550.20905 " fill="#000000" />
<desc fontName="OMYJDM+LMRoman10-Regular" rect="524.6142,542.6906,531.1629,552.0554" fontRect="524.24225,536.93884,531.62256,555.76154" ucode="62">b</desc>
<path d="M531.16296,549.0401 C531.16296,547.3531,529.86115,546.038,528.3468,546.038 C527.3107,546.038,526.7395,546.66235,526.527,546.9015 L526.527,542.6906 L524.6142,542.83673 L524.6142,543.24854 C525.54407,543.24854,525.65027,543.3415,525.65027,543.9924 L525.65027,551.9093 L525.9824,551.9093 L526.4606,551.08575 C526.65985,551.3913,527.2178,552.0554,528.2007,552.0554 C529.7815,552.0554,531.16296,550.75366,531.16296,549.0401 Z M530.0604,549.0268 C530.0604,549.5183,530.0338,550.3153,529.6486,550.9131 C529.3696,551.3248,528.86487,551.7632,528.1476,551.7632 C527.5498,551.7632,527.07166,551.4444,526.7528,550.95294 C526.5669,550.67395,526.5669,550.6341,526.5669,550.395 L526.5669,547.6586 C526.5669,547.40625,526.5669,547.39294,526.713,547.1804 C527.231,546.4365,527.9616,546.33026,528.2804,546.33026 C528.8782,546.33026,529.3564,546.67566,529.6752,547.1804 C530.02057,547.72504,530.0604,548.4822,530.0604,549.0268 Z M530.0604,549.0268 " fill="#000000" />
<desc fontName="OMYJDM+LMRoman10-Regular" rect="532.0476,545.9583,538.03845,552.0554" fontRect="531.62256,536.93884,538.2643,555.76154" ucode="61">a</desc>
<path d="M538.03845,550.7271 L538.03845,549.9832 L537.70636,549.9832 L537.70636,550.7271 C537.70636,551.49756,537.37427,551.5773,537.22815,551.5773 C536.7898,551.5773,536.7367,550.9795,536.7367,550.9131 L536.7367,548.25635 C536.7367,547.6985,536.7367,547.1804,536.2585,546.6889 C535.7404,546.1709,535.07623,545.9583,534.4386,545.9583 C533.34937,545.9583,532.43286,546.58264,532.43286,547.45935 C532.43286,547.85785,532.6985,548.0837,533.0439,548.0837 C533.4158,548.0837,533.6549,547.818,533.6549,547.47266 C533.6549,547.31323,533.5885,546.8749,532.9774,546.86163 C533.3361,546.39667,533.987,546.25055,534.41205,546.25055 C535.063,546.25055,535.8201,546.7686,535.8201,547.95087 L535.8201,548.4423 C535.14264,548.4822,534.2128,548.52203,533.376,548.92053 C532.3797,549.3722,532.0476,550.0629,532.0476,550.6474 C532.0476,551.7234,533.3361,552.0554,534.173,552.0554 C535.0497,552.0554,535.6607,551.5241,535.9131,550.8998 C535.96625,551.43115,536.3249,551.989,536.9492,551.989 C537.22815,551.989,538.03845,551.80304,538.03845,550.7271 Z M535.8201,550.0496 C535.8201,551.3116,534.8637,551.7632,534.2659,551.7632 C533.61505,551.7632,533.07043,551.2983,533.07043,550.6341 C533.07043,549.9035,533.62836,548.801,535.8201,548.7213 Z M535.8201,548.7213 " fill="#000000" />
<desc fontName="OMYJDM+LMRoman10-Regular" rect="538.09155,543.18207,541.4124,554.63245" fontRect="538.6229,536.93884,542.6823,555.76154" ucode="6a">j</desc>
<path d="M541.4124,552.5735 L541.4124,546.038 L539.3933,546.18414 L539.3933,546.59595 C540.41614,546.59595,540.5357,546.6889,540.5357,547.33984 L540.5357,552.6001 C540.5357,553.1978,540.41614,554.3402,539.56604,554.3402 C539.49963,554.3402,539.1941,554.3402,538.84875,554.16754 C539.048,554.1144,539.31366,553.9284,539.31366,553.56976 C539.31366,553.22437,539.0745,552.95874,538.70264,552.95874 C538.3307,552.95874,538.09155,553.22437,538.09155,553.56976 C538.09155,554.2605,538.83545,554.63245,539.5926,554.63245 C540.58887,554.63245,541.4124,553.7823,541.4124,552.5735 Z M541.4124,543.8861 C541.4124,543.52747,541.10693,543.18207,540.7084,543.18207 C540.2568,543.18207,539.9911,543.554,539.9911,543.8861 C539.9911,544.24475,540.29663,544.59015,540.6951,544.59015 C541.1467,544.59015,541.4124,544.2182,541.4124,543.8861 Z M541.4124,543.8861 " fill="#000000" />
<desc fontName="OMYJDM+LMRoman10-Regular" rect="543.05426,545.9583,548.93884,552.0554" fontRect="542.6823,536.93884,549.32404,555.76154" ucode="6f">o</desc>
<path d="M548.93884,549.06665 C548.93884,547.3664,547.6105,545.9583,546.0032,545.9583 C544.3428,545.9583,543.05426,547.40625,543.05426,549.06665 C543.05426,550.7802,544.4357,552.0554,545.98987,552.0554 C547.59717,552.0554,548.93884,550.75366,548.93884,549.06665 Z M547.8363,548.9604 C547.8363,549.4386,547.8363,550.1559,547.54407,550.74036 C547.25183,551.33813,546.66736,551.7234,546.0032,551.7234 C545.432,551.7234,544.84753,551.4444,544.4889,550.8334 C544.15674,550.2489,544.15674,549.4386,544.15674,548.9604 C544.15674,548.4423,544.15674,547.72504,544.4756,547.14056 C544.8342,546.52954,545.45856,546.25055,545.98987,546.25055 C546.57434,546.25055,547.14557,546.5428,547.49097,547.114 C547.8363,547.6852,547.8363,548.4556,547.8363,548.9604 Z M547.8363,548.9604 " fill="#000000" />
<desc fontName="OMYJDM+LMRoman10-Regular" rect="554.1326,545.9583,559.2734,552.0554" fontRect="553.76074,536.93884,559.6652,555.76154" ucode="65">e</desc>
<path d="M559.2734,550.3286 C559.2734,550.19574,559.1671,550.1692,559.1007,550.1692 C558.98114,550.1692,558.9546,550.2489,558.928,550.35516 C558.4631,551.7234,557.2676,551.7234,557.1347,551.7234 C556.4706,551.7234,555.9392,551.3248,555.63367,550.8334 C555.23517,550.19574,555.23517,549.31903,555.23517,548.8408 L558.9413,548.8408 C559.2335,548.8408,559.2734,548.8408,559.2734,548.5619 C559.2734,547.2468,558.556,545.9583,556.8956,545.9583 C555.35474,545.9583,554.1327,547.32654,554.1327,548.98694 C554.1327,550.76697,555.5274,552.0554,557.05505,552.0554 C558.6756,552.0554,559.2734,550.581,559.2734,550.3286 Z M558.39667,548.5619 L555.2485,548.5619 C555.3282,546.58264,556.444,546.25055,556.8956,546.25055 C558.2638,546.25055,558.39667,548.0438,558.39667,548.5619 Z M558.39667,548.5619 " fill="#000000" />
<desc fontName="OMYJDM+LMRoman10-Regular" rect="560.0903,546.038,566.77185,551.9093" fontRect="559.6652,536.93884,567.04553,555.76154" ucode="6e">n</desc>
<path d="M566.77185,551.9093 L566.77185,551.49756 C566.0812,551.49756,565.749,551.49756,565.7358,551.09906 L565.7358,548.5619 C565.7358,547.4195,565.7358,547.00775,565.324,546.52954 C565.138,546.3037,564.69965,546.038,563.9292,546.038 C562.95953,546.038,562.3352,546.60925,561.96326,547.4328 L561.96326,546.038 L560.09033,546.18414 L560.09033,546.59595 C561.02014,546.59595,561.1264,546.6889,561.1264,547.33984 L561.1264,550.8998 C561.1264,551.49756,560.9803,551.49756,560.09033,551.49756 L560.09033,551.9093 L561.5913,551.8695 L563.0791,551.9093 L563.0791,551.49756 C562.1891,551.49756,562.04297,551.49756,562.04297,550.8998 L562.04297,548.4556 C562.04297,547.07416,562.9861,546.33026,563.83624,546.33026 C564.6731,546.33026,564.8192,547.0476,564.8192,547.80475 L564.8192,550.8998 C564.8192,551.49756,564.6731,551.49756,563.7831,551.49756 L563.7831,551.9093 L565.2841,551.8695 Z M565.2841,551.8695 " fill="#000000" />
<desc fontName="OMYJDM+LMRoman10-Regular" rect="571.8408,545.8919,577.9114,554.64575" fontRect="571.4689,536.93884,578.1106,555.76154" ucode="67">g</desc>
<path d="M577.9114,546.5428 C577.9114,546.317,577.75195,545.8919,577.2339,545.8919 C576.96826,545.8919,576.3838,545.9716,575.82587,546.51624 C575.26794,546.0779,574.7101,546.038,574.41785,546.038 C573.1825,546.038,572.26587,546.9546,572.26587,547.9774 C572.26587,548.5619,572.5581,549.06665,572.89026,549.34564 C572.7175,549.54486,572.47845,549.9832,572.47845,550.4481 C572.47845,550.8599,572.6511,551.3647,573.0629,551.6304 C572.26587,551.8562,571.8408,552.42737,571.8408,552.95874 C571.8408,553.91516,573.1559,554.64575,574.7765,554.64575 C576.34393,554.64575,577.7254,553.96826,577.7254,552.9321 C577.7254,552.4672,577.5394,551.7898,576.862,551.41785 C576.15796,551.0459,575.3875,551.0459,574.5772,551.0459 C574.2451,551.0459,573.67395,551.0459,573.58093,551.0326 C573.1559,550.9795,572.87695,550.5677,572.87695,550.14264 C572.87695,550.0895,572.87695,549.784,573.1028,549.5183 C573.62085,549.89026,574.1654,549.9301,574.41785,549.9301 C575.6532,549.9301,576.56976,549.01355,576.56976,547.9907 C576.56976,547.4992,576.3572,547.00775,576.02515,546.7022 C576.5033,546.25055,576.98157,546.18414,577.22064,546.18414 C577.22064,546.18414,577.3136,546.18414,577.35345,546.19745 C577.20734,546.25055,577.1409,546.39667,577.1409,546.5561 C577.1409,546.7819,577.3136,546.9413,577.5261,546.9413 C577.659,546.9413,577.9114,546.8483,577.9114,546.5428 Z M575.5735,547.9774 C575.5735,548.33606,575.5602,548.76117,575.36096,549.09326 C575.2547,549.2526,574.94916,549.6246,574.41785,549.6246 C573.26215,549.6246,573.26215,548.2962,573.26215,547.9907 C573.26215,547.6321,573.27545,547.207,573.47473,546.8749 C573.58093,546.7155,573.8865,546.34357,574.41785,546.34357 C575.5735,546.34357,575.5735,547.6719,575.5735,547.9774 Z M577.03467,552.95874 C577.03467,553.676,576.09155,554.3402,574.7898,554.3402 C573.4481,554.3402,572.53156,553.6627,572.53156,552.95874 C572.53156,552.34766,573.0364,551.8562,573.62085,551.81635 L574.40454,551.81635 C575.54694,551.81635,577.03467,551.81635,577.03467,552.95874 Z M577.03467,552.95874 " fill="#000000" />
<desc fontName="OMYJDM+LMRoman10-Regular" rect="578.48254,546.038,582.9458,551.9093" fontRect="578.1106,536.93884,583.3137,555.76154" ucode="72">r</desc>
<path d="M582.9458,546.8483 C582.9458,546.4233,582.534,546.038,581.9628,546.038 C580.99316,546.038,580.5149,546.92804,580.329,547.4992 L580.329,546.038 L578.48254,546.18414 L578.48254,546.59595 C579.4124,546.59595,579.5187,546.6889,579.5187,547.33984 L579.5187,550.8998 C579.5187,551.49756,579.37256,551.49756,578.48254,551.49756 L578.48254,551.9093 L579.9969,551.8695 C580.5282,551.8695,581.1525,551.8695,581.68384,551.9093 L581.68384,551.49756 L581.4049,551.49756 C580.42194,551.49756,580.3954,551.35144,580.3954,550.8732 L580.3954,548.8276 C580.3954,547.5125,580.95325,546.33026,581.9628,546.33026 C582.0558,546.33026,582.0824,546.33026,582.10895,546.34357 C582.0691,546.3568,581.8034,546.51624,581.8034,546.86163 C581.8034,547.2335,582.0824,547.4328,582.37463,547.4328 C582.6137,547.4328,582.9458,547.2734,582.9458,546.8483 Z M582.9458,546.8483 " fill="#000000" />
<desc fontName="OMYJDM+LMRoman10-Regular" rect="583.73883,545.9583,589.7297,552.0554" fontRect="583.3137,536.93884,589.95544,555.76154" ucode="61">a</desc>
<path d="M589.7297,550.7271 L589.7297,549.9832 L589.3976,549.9832 L589.3976,550.7271 C589.3976,551.49756,589.0655,551.5773,588.9194,551.5773 C588.481,551.5773,588.42786,550.9795,588.42786,550.9131 L588.42786,548.25635 C588.42786,547.6985,588.42786,547.1804,587.9497,546.6889 C587.43164,546.1709,586.76746,545.9583,586.1298,545.9583 C585.0406,545.9583,584.124,546.58264,584.124,547.45935 C584.124,547.85785,584.3897,548.0837,584.7351,548.0837 C585.107,548.0837,585.3461,547.818,585.3461,547.47266 C585.3461,547.31323,585.27966,546.8749,584.66864,546.86163 C585.02734,546.39667,585.6782,546.25055,586.1033,546.25055 C586.75415,546.25055,587.51135,546.7686,587.51135,547.95087 L587.51135,548.4423 C586.83386,548.4822,585.90405,548.52203,585.06714,548.92053 C584.0709,549.3722,583.73883,550.0629,583.73883,550.6474 C583.73883,551.7234,585.02734,552.0554,585.86414,552.0554 C586.74084,552.0554,587.3519,551.5241,587.6043,550.8998 C587.6575,551.43115,588.0161,551.989,588.6404,551.989 C588.9194,551.989,589.7297,551.80304,589.7297,550.7271 Z M587.51135,550.0496 C587.51135,551.3116,586.55493,551.7632,585.95715,551.7632 C585.3063,551.7632,584.76166,551.2983,584.76166,550.6341 C584.76166,549.9035,585.3196,548.801,587.51135,548.7213 Z M587.51135,548.7213 " fill="#000000" />
<desc fontName="OMYJDM+LMRoman10-Regular" rect="590.3938,545.9583,594.7375,552.0554" fontRect="589.95544,536.93884,595.1958,555.76154" ucode="73">s</desc>
<path d="M594.73755,550.20905 C594.73755,549.505,594.339,549.1065,594.1796,548.94714 C593.7413,548.52203,593.2232,548.4158,592.6653,548.3095 C591.9214,548.1634,591.03143,547.9907,591.03143,547.2203 C591.03143,546.7554,591.37683,546.2107,592.51917,546.2107 C593.98035,546.2107,594.04675,547.40625,594.07336,547.818 C594.0866,547.93756,594.2327,547.93756,594.2327,547.93756 C594.4054,547.93756,594.4054,547.87115,594.4054,547.6188 L594.4054,546.27716 C594.4054,546.05133,594.4054,545.9583,594.2593,545.9583 C594.1929,545.9583,594.1663,545.9583,593.99365,546.11774 C593.9538,546.1709,593.8209,546.2904,593.7678,546.33026 C593.26306,545.9583,592.71844,545.9583,592.51917,545.9583 C590.89856,545.9583,590.3938,546.8483,590.3938,547.5922 C590.3938,548.0571,590.6063,548.4291,590.965,548.7213 C591.3901,549.06665,591.762,549.14636,592.71844,549.33234 C593.0107,549.3855,594.0999,549.598,594.0999,550.55444 C594.0999,551.2319,593.635,551.7632,592.5989,551.7632 C591.48303,551.7632,591.0049,551.00604,590.75244,549.87695 C590.71265,549.7043,590.69934,549.6511,590.5665,549.6511 C590.3938,549.6511,590.3938,549.74414,590.3938,549.9832 L590.3938,551.73663 C590.3938,551.96246,590.3938,552.0554,590.5399,552.0554 C590.6063,552.0554,590.6196,552.0422,590.872,551.7898 C590.89856,551.7632,590.89856,551.73663,591.1377,551.48425 C591.72217,552.0422,592.31995,552.0554,592.5989,552.0554 C594.12646,552.0554,594.73755,551.16547,594.73755,550.20905 Z M594.73755,550.20905 " fill="#000000" />
<desc fontName="OMYJDM+LMRoman10-Regular" rect="595.62085,545.9583,601.6117,552.0554" fontRect="595.1958,536.93884,601.8375,555.76154" ucode="61">a</desc>
<path d="M601.6117,550.7271 L601.6117,549.9832 L601.2796,549.9832 L601.2796,550.7271 C601.2796,551.49756,600.9475,551.5773,600.8014,551.5773 C600.36304,551.5773,600.30994,550.9795,600.30994,550.9131 L600.30994,548.25635 C600.30994,547.6985,600.30994,547.1804,599.8317,546.6889 C599.31366,546.1709,598.6495,545.9583,598.01184,545.9583 C596.9226,545.9583,596.0061,546.58264,596.0061,547.45935 C596.0061,547.85785,596.2717,548.0837,596.6171,548.0837 C596.989,548.0837,597.22815,547.818,597.22815,547.47266 C597.22815,547.31323,597.16174,546.8749,596.55066,546.86163 C596.90936,546.39667,597.56024,546.25055,597.9853,546.25055 C598.6362,546.25055,599.3934,546.7686,599.3934,547.95087 L599.3934,548.4423 C598.7159,548.4822,597.7861,548.52203,596.9492,548.92053 C595.95294,549.3722,595.62085,550.0629,595.62085,550.6474 C595.62085,551.7234,596.90936,552.0554,597.7462,552.0554 C598.6229,552.0554,599.23395,551.5241,599.4863,550.8998 C599.5395,551.43115,599.89813,551.989,600.52246,551.989 C600.8014,551.989,601.6117,551.80304,601.6117,550.7271 Z M599.3934,550.0496 C599.3934,551.3116,598.43695,551.7632,597.8392,551.7632 C597.1883,551.7632,596.6437,551.2983,596.6437,550.6341 C596.6437,549.9035,597.2016,548.801,599.3934,548.7213 Z M599.3934,548.7213 " fill="#000000" />
<desc fontName="OMYJDM+LMRoman10-Regular" rect="602.97986,550.5013,604.38794,551.9093" fontRect="601.8375,536.93884,605.52765,555.76154" ucode="2e">.</desc>
<path d="M604.38794,551.2053 C604.38794,550.82007,604.0691,550.5013,603.6839,550.5013 C603.2987,550.5013,602.97986,550.82007,602.97986,551.2053 C602.97986,551.5905,603.2987,551.9093,603.6839,551.9093 C604.0691,551.9093,604.38794,551.5905,604.38794,551.2053 Z M604.38794,551.2053 " fill="#000000" />
<desc fontName="OMYJDM+LMRoman10-Regular" rect="405.05063,990.8578,410.93518,999.85065" fontRect="404.67868,984.8802,411.3204,1003.7029" ucode="34">4</desc>
<path d="M410.93518,997.6589 L410.93518,997.24713 L409.60687,997.24713 L409.60687,991.2031 C409.60687,990.93744,409.60687,990.8578,409.3943,990.8578 C409.27475,990.8578,409.23492,990.8578,409.12863,991.01715 L405.05063,997.24713 L405.05063,997.6589 L408.58405,997.6589 L408.58405,998.8146 C408.58405,999.2928,408.55746,999.4389,407.57446,999.4389 L407.29553,999.4389 L407.29553,999.85065 C407.84015,999.8108,408.53088,999.8108,409.0888,999.8108 C409.6467,999.8108,410.3507,999.8108,410.89536,999.85065 L410.89536,999.4389 L410.6164,999.4389 C409.63342,999.4389,409.60687,999.2928,409.60687,998.8146 L409.60687,997.6589 Z M408.6637,997.24713 L405.42255,997.24713 L408.6637,992.29236 Z M408.6637,992.29236 " fill="#000000" />
</svg>
