<?xml version="1.0" encoding="UTF-8"?>
<svg xmlns="http://www.w3.org/2000/svg" xmlns:xlink="http://www.w3.org/1999/xlink" width="816.0" height="1056.0" viewBox="0.0 -0.0 816.0 1056.0">
<desc  rect="378.420000,397.020000,396.110000,415.620000" borderline_left="1" borderline_top="1" borderline_bottom="1">path</desc>
<path d="M396.10553,411.36884 L395.77344,411.36884 C395.25537,412.7503,393.84735,413.6536,392.31976,414.0521 C392.04077,414.1185,390.739,414.46387,388.18857,414.46387 L380.17865,414.46387 L386.93994,406.53366 C387.03293,406.42737,387.0595,406.38754,387.0595,406.3211 C387.0595,406.3211,387.0595,406.2547,386.96652,406.12186 L380.77643,397.66028 L388.05576,397.66028 C389.83575,397.66028,391.04453,397.84625,391.16406,397.87283 C391.8814,397.9791,393.03705,398.20493,394.08643,398.86908 C394.41855,399.08163,395.32184,399.67938,395.77344,400.75534 L396.10553,400.75534 L394.49823,397.02267 L378.79718,397.02267 C378.49167,397.02267,378.47836,397.03598,378.43854,397.11566 C378.42523,397.15552,378.42523,397.4079,378.42523,397.55402 L385.4522,407.17126 L378.57135,415.2343 C378.43854,415.3937,378.43854,415.47342,378.43854,415.47342 C378.43854,415.61954,378.55807,415.61954,378.79718,415.61954 L394.49823,415.61954 Z M394.49823,415.61954 " fill="#000000" />
<desc  rect="398.390000,399.680000,401.350000,412.970000" borderline_left="1" borderline_top="1" borderline_right="1" borderline_bottom="1">path</desc>
<path d="M401.34482,412.69788 C401.34482,412.69788,401.34482,412.61816,401.2784,412.45877 L398.94052,406.3218 L401.2784,400.18484 C401.34482,400.02545,401.34482,399.94574,401.34482,399.94574 C401.34482,399.79962,401.22528,399.68008,401.07916,399.68008 C400.90646,399.68008,400.85333,399.79962,400.80017,399.94574 L398.46228,406.0827 C398.39587,406.24213,398.39587,406.3218,398.39587,406.3218 C398.39587,406.3218,398.39587,406.40152,398.46228,406.5609 L400.78693,412.67133 C400.85333,412.83072,400.89316,412.96356,401.07916,412.96356 C401.22528,412.96356,401.34482,412.844,401.34482,412.69788 Z M401.34482,412.69788 " fill="#000000" />
<desc  rect="378.420000,442.200000,396.110000,460.810000" borderline_left="1" borderline_top="1" borderline_bottom="1">path</desc>
<path d="M396.10544,456.55148 L395.77338,456.55148 C395.2553,457.93298,393.84726,458.83624,392.31967,459.23474 C392.0407,459.30118,390.73895,459.64655,388.18848,459.64655 L380.17856,459.64655 L386.93988,451.7163 C387.03284,451.61005,387.05942,451.5702,387.05942,451.50378 C387.05942,451.50378,387.05942,451.43735,386.96643,451.30453 L380.77634,442.84296 L388.05566,442.84296 C389.83566,442.84296,391.04443,443.02893,391.164,443.05548 C391.88132,443.16174,393.03696,443.38757,394.08636,444.05176 C394.41846,444.26428,395.32175,444.86203,395.77338,445.938 L396.10544,445.938 L394.49814,442.20535 L378.7971,442.20535 C378.49158,442.20535,378.47827,442.21863,378.43845,442.29834 C378.42514,442.33817,378.42514,442.59058,378.42514,442.7367 L385.45212,452.3539 L378.57126,460.417 C378.43845,460.5764,378.43845,460.65607,378.43845,460.65607 C378.43845,460.8022,378.55798,460.8022,378.7971,460.8022 L394.49814,460.8022 Z M394.49814,460.8022 " fill="#000000" />
<desc  rect="398.390000,444.860000,401.350000,458.150000" borderline_left="1" borderline_top="1" borderline_right="1" borderline_bottom="1">path</desc>
<path d="M401.34473,457.88052 C401.34473,457.88052,401.34473,457.80084,401.27832,457.64145 L398.94043,451.5045 L401.27832,445.36752 C401.34473,445.2081,401.34473,445.12842,401.34473,445.12842 C401.34473,444.9823,401.2252,444.86273,401.07907,444.86273 C400.90637,444.86273,400.85324,444.9823,400.8001,445.12842 L398.46222,451.26538 C398.3958,451.42477,398.3958,451.5045,398.3958,451.5045 C398.3958,451.5045,398.3958,451.58417,398.46222,451.74356 L400.78683,457.85397 C400.85324,458.01337,400.89307,458.1462,401.07907,458.1462 C401.2252,458.1462,401.34473,458.02664,401.34473,457.88052 Z M401.34473,457.88052 " fill="#000000" />
<desc  rect="372.420000,648.150000,390.110000,666.760000" borderline_left="1" borderline_top="1" borderline_bottom="1">path</desc>
<path d="M390.1015,662.5021 L389.7694,662.5021 C389.25134,663.8836,387.84332,664.78687,386.31573,665.18536 C386.03674,665.2518,384.735,665.59717,382.18454,665.59717 L374.17462,665.59717 L380.9359,657.66693 C381.0289,657.56067,381.05548,657.5208,381.05548,657.4544 C381.05548,657.4544,381.05548,657.38794,380.9625,657.2551 L374.7724,648.7936 L382.05173,648.7936 C383.83173,648.7936,385.0405,648.97955,385.16003,649.0061 C385.87738,649.11237,387.03302,649.3382,388.0824,650.0024 C388.41452,650.2149,389.3178,650.8126,389.7694,651.8886 L390.1015,651.8886 L388.4942,648.15594 L372.79315,648.15594 C372.48764,648.15594,372.47433,648.16925,372.4345,648.24896 C372.4212,648.28876,372.4212,648.5412,372.4212,648.6873 L379.44818,658.3045 L372.56732,666.3676 C372.4345,666.527,372.4345,666.6067,372.4345,666.6067 C372.4345,666.7528,372.55405,666.7528,372.79315,666.7528 L388.4942,666.7528 Z M388.4942,666.7528 " fill="#000000" />
<desc  rect="396.540000,646.060000,400.920000,651.940000">path</desc>
<path d="M400.67416,651.2566 C400.67416,651.21674,400.66086,651.0706,400.54132,651.0706 C400.54132,651.0706,400.48816,651.0706,400.36862,651.1503 C399.95685,651.416,399.46533,651.64185,398.97388,651.64185 C398.20343,651.64185,397.53925,651.0839,397.53925,649.915 C397.53925,649.4501,397.6455,648.9453,397.68536,648.7859 L399.87714,648.7859 C400.0897,648.7859,400.3288,648.7859,400.3288,648.56006 C400.3288,648.3741,400.16937,648.3741,399.94357,648.3741 L397.79163,648.3741 C398.11044,647.245,398.8543,646.47455,400.0631,646.47455 L400.4749,646.47455 C400.70074,646.47455,400.91327,646.47455,400.91327,646.2487 C400.91327,646.0628,400.74057,646.0628,400.51474,646.0628 L400.0498,646.0628 C398.32297,646.0628,396.54297,647.3911,396.54297,649.4235 C396.54297,650.8847,397.53925,651.9341,398.94733,651.9341 C399.81073,651.9341,400.67416,651.4027,400.67416,651.2566 Z M400.67416,651.2566 " fill="#000000" />
<desc fontName="HFCTKD+LMMathItalic7-Regular" rect="402.00806,649.09753,406.5829,655.6436" fontRect="401.31067,648.57684,406.9576,657.87524" ucode="6b">k</desc>
<path d="M406.50848,654.22095 C406.50848,654.1001,406.38763,654.1001,406.3597,654.1001 C406.22955,654.1001,406.2202,654.1466,406.17377,654.32324 C406.06213,654.7231,405.8111,655.3833,405.35547,655.3833 C405.10443,655.3833,405.03003,655.1508,405.03003,654.8998 C405.03003,654.7417,405.03003,654.7231,405.08582,654.4813 C405.09515,654.4534,405.13232,654.29535,405.13232,654.19305 C405.13232,653.36554,404.01654,653.23535,403.62598,653.20746 C403.89563,653.0401,404.2397,652.7332,404.39777,652.59375 C404.87195,652.14746,405.33688,651.7104,405.8576,651.7104 C405.96918,651.7104,406.09006,651.7383,406.16443,651.8313 C405.76462,651.89636,405.6809,652.2125,405.6809,652.352 C405.6809,652.5566,405.839,652.69604,406.05286,652.69604 C406.30392,652.69604,406.58286,652.49146,406.58286,652.10095 C406.58286,651.79407,406.3597,651.4501,405.8669,651.4501 C405.33688,651.4501,404.85336,651.8313,404.37915,652.2683 C403.98862,652.64026,403.68176,652.9285,403.30054,653.08655 L404.22107,649.3765 C404.23035,649.3579,404.25827,649.2277,404.25827,649.2277 C404.25827,649.1812,404.22107,649.09753,404.1095,649.09753 C403.92352,649.09753,403.15173,649.17194,402.9193,649.19055 C402.8449,649.1998,402.71472,649.20917,402.71472,649.4044 C402.71472,649.5346,402.8449,649.5346,402.9565,649.5346 C403.4028,649.5346,403.4028,649.5997,403.4028,649.6741 C403.4028,649.73914,403.38422,649.7949,403.3656,649.8786 L402.05453,655.14154 C402.00806,655.3089,402.00806,655.34607,402.00806,655.34607 C402.00806,655.48553,402.11963,655.6436,402.3242,655.6436 C402.57526,655.6436,402.69614,655.45764,402.75192,655.2531 C402.7705,655.2159,403.17035,653.5794,403.20758,653.4492 C403.86774,653.5143,404.39777,653.72815,404.39777,654.2117 C404.39777,654.2582,404.39777,654.3047,404.37915,654.39764 C404.34198,654.5371,404.34198,654.5836,404.34198,654.6859 C404.34198,655.34607,404.8813,655.6436,405.3276,655.6436 C406.22955,655.6436,406.50848,654.22095,406.50848,654.22095 Z M406.50848,654.22095 " fill="#000000" />
<desc  rect="394.540000,657.250000,409.230000,657.660000" borderline_top="1" borderline_bottom="1">path</desc>
<clipPath id="path_mask_006_0001"><path d="M0.0,1056.0 L0.0,-3.1471252E-5 L816.0,-3.1471252E-5 L816.0,1056.0 Z " /></clipPath>
<g clip-path="url(#path_mask_006_0001)">
<path d="M394.74,657.45465 L409.02402,657.45465 " fill="none" stroke="#000000" stroke-opacity="1.0" stroke-width="0.398"  />
</g>
<desc  rect="372.420000,692.710000,390.110000,711.310000" borderline_left="1" borderline_top="1" borderline_bottom="1">path</desc>
<path d="M390.10153,707.05676 L389.76947,707.05676 C389.2514,708.4383,387.84335,709.34155,386.31577,709.74005 C386.0368,709.80646,384.73505,710.15186,382.18457,710.15186 L374.17465,710.15186 L380.93597,702.2216 C381.02893,702.11536,381.0555,702.0755,381.0555,702.0091 C381.0555,702.0091,381.0555,701.9426,380.96252,701.8098 L374.77243,693.34827 L382.05176,693.34827 C383.83176,693.34827,385.04053,693.53424,385.1601,693.5608 C385.8774,693.66705,387.03305,693.8929,388.08246,694.55707 C388.41455,694.7696,389.31784,695.3673,389.76947,696.4433 L390.10153,696.4433 L388.49423,692.71063 L372.79318,692.71063 C372.48767,692.71063,372.47437,692.72394,372.43454,692.80365 C372.42123,692.8435,372.42123,693.0959,372.42123,693.242 L379.4482,702.8592 L372.56735,710.9223 C372.43454,711.08167,372.43454,711.1614,372.43454,711.1614 C372.43454,711.3075,372.55408,711.3075,372.79318,711.3075 L388.49423,711.3075 Z M388.49423,711.3075 " fill="#000000" />
<desc  rect="396.200000,686.380000,399.160000,699.670000" borderline_left="1" borderline_top="1" borderline_right="1" borderline_bottom="1">path</desc>
<path d="M399.15015,699.3992 C399.15015,699.3992,399.15015,699.31946,399.08374,699.1601 L396.74585,693.02313 L399.08374,686.88617 C399.15015,686.72675,399.15015,686.64703,399.15015,686.64703 C399.15015,686.5009,399.0306,686.3814,398.8845,686.3814 C398.7118,686.3814,398.65866,686.5009,398.60553,686.64703 L396.26764,692.784 C396.20123,692.9434,396.20123,693.02313,396.20123,693.02313 C396.20123,693.02313,396.20123,693.10284,396.26764,693.2622 L398.59225,699.3726 C398.65866,699.53204,398.6985,699.66486,398.8845,699.66486 C399.0306,699.66486,399.15015,699.5453,399.15015,699.3992 Z M399.15015,699.3992 " fill="#000000" />
<desc fontName="ICDIKT+LMMathItalic10-Regular" rect="400.264,687.27136,411.2096,696.344" fontRect="399.90536,686.3814,410.9107,699.66486" ucode="58">X</desc>
<path d="M409.6023,696.0916 C409.6023,695.9322,409.46945,695.9322,409.36322,695.9322 C408.4732,695.9189,408.44662,695.8791,408.22083,695.3477 L406.50726,691.2431 C407.41052,690.3133,408.8053,688.73254,409.23035,688.3606 C409.61557,688.0418,410.12033,687.723,410.91736,687.68317 C411.09006,687.66986,411.2096,687.66986,411.2096,687.4175 C411.2096,687.4175,411.2096,687.27136,411.03693,687.27136 C410.6384,687.27136,410.20004,687.3112,409.78827,687.3112 C409.29675,687.3112,408.792,687.27136,408.3138,687.27136 C408.2341,687.27136,408.0614,687.27136,408.0614,687.53705 C408.0614,687.63,408.1278,687.66986,408.22083,687.68317 C408.3404,687.6965,408.75217,687.723,408.75217,688.095 C408.75217,688.28094,408.60605,688.4536,408.49976,688.5732 L406.34784,690.88446 L405.23203,688.2411 L405.16562,688.06836 C405.16562,687.9887,405.39145,687.73627,405.94934,687.68317 C406.08215,687.66986,406.21503,687.6566,406.21503,687.4308 C406.21503,687.27136,406.0556,687.27136,406.01575,687.27136 C405.47113,687.27136,404.89996,687.3112,404.34204,687.3112 C404.00995,687.3112,403.18637,687.27136,402.8543,687.27136 C402.7746,687.27136,402.6152,687.27136,402.6152,687.53705 C402.6152,687.68317,402.74802,687.68317,402.92072,687.68317 C403.7177,687.68317,403.79742,687.816,403.91696,688.1082 L405.48444,691.81433 L402.6816,694.82965 C402.6019,694.89606,402.58862,694.90936,402.5089,694.97577 C401.85803,695.6798,401.2337,695.89233,400.55624,695.9322 C400.38354,695.9455,400.264,695.9455,400.264,696.1979 C400.264,696.1979,400.264,696.344,400.4367,696.344 C400.8352,696.344,401.27356,696.30414,401.68536,696.30414 C402.17685,696.30414,402.6949,696.344,403.1731,696.344 C403.2528,696.344,403.4122,696.344,403.4122,696.0783 C403.4122,695.9455,403.2528,695.9322,403.2528,695.9322 C403.13324,695.9189,402.72144,695.89233,402.72144,695.5204 C402.72144,695.30786,402.92072,695.09534,403.08014,694.92267 L404.43503,693.48804 L405.63055,692.1863 L406.97217,695.361 L407.03857,695.547 C407.03857,695.65326,406.7862,695.8791,406.26816,695.9322 C406.12204,695.9455,406.0025,695.95874,406.0025,696.1846 C406.0025,696.344,406.14862,696.344,406.20172,696.344 L407.87546,696.30414 C408.20752,696.30414,409.01782,696.344,409.3499,696.344 C409.44287,696.344,409.6023,696.344,409.6023,696.0916 Z M409.6023,696.0916 " fill="#000000" />
<desc fontName="OMYJDM+LMRoman10-Regular" rect="413.26843,686.3814,416.35022,699.66486" fontRect="411.95337,681.37354,417.11932,700.19617" ucode="28">(</desc>
<path d="M416.3502,699.53204 C416.3502,699.4922,416.3502,699.4656,416.1244,699.2398 C414.46396,697.56604,414.03888,695.0555,414.03888,693.02313 C414.03888,690.7118,414.54367,688.40045,416.17755,686.74005 C416.3502,686.5806,416.3502,686.5541,416.3502,686.5142 C416.3502,686.4212,416.2971,686.3814,416.21738,686.3814 C416.08453,686.3814,414.889,687.28467,414.10532,688.9717 C413.42783,690.43286,413.26843,691.9073,413.26843,693.02313 C413.26843,694.0592,413.41455,695.6665,414.14514,697.16754 C414.94214,698.80145,416.08453,699.66486,416.21738,699.66486 C416.2971,699.66486,416.3502,699.625,416.3502,699.53204 Z M416.3502,699.53204 " fill="#000000" />
<desc fontName="ICDIKT+LMMathItalic10-Regular" rect="417.42422,688.0285,421.50226,696.4901" fontRect="417.1187,686.3814,421.91537,699.66486" ucode="74">t</desc>
<path d="M421.28973,694.44446 C421.28973,694.3116,421.18344,694.3116,421.1303,694.3116 C421.01074,694.3116,420.9975,694.35144,420.93103,694.49756 C420.35986,695.8791,419.65585,696.1979,419.2042,696.1979 C418.92526,696.1979,418.79242,696.0252,418.79242,695.58685 C418.79242,695.268,418.81897,695.17505,418.87213,694.9492 L419.8551,691.0306 L421.10373,691.0306 C421.3694,691.0306,421.50226,691.0306,421.50226,690.76495 C421.50226,690.61884,421.3694,690.61884,421.1303,690.61884 L419.96136,690.61884 C420.43958,688.73254,420.50598,688.46686,420.50598,688.3872 C420.50598,688.1614,420.34656,688.0285,420.1208,688.0285 C420.0809,688.0285,419.70898,688.0418,419.58945,688.5067 L419.07138,690.61884 L417.82272,690.61884 C417.55707,690.61884,417.4242,690.61884,417.4242,690.8712 C417.4242,691.0306,417.5305,691.0306,417.79614,691.0306 L418.9651,691.0306 C418.00867,694.8031,417.95557,695.02893,417.95557,695.268 C417.95557,695.98535,418.46033,696.4901,419.1776,696.4901 C420.53256,696.4901,421.28973,694.5507,421.28973,694.44446 Z M421.28973,694.44446 " fill="#000000" />
<desc fontName="OMYJDM+LMRoman10-Regular" rect="422.6732,686.3814,425.75494,699.66486" fontRect="421.91602,681.37354,427.08197,700.19617" ucode="29">)</desc>
<path d="M425.75494,693.02313 C425.75494,691.987,425.60883,690.3797,424.87823,688.87866 C424.08124,687.2448,422.93884,686.3814,422.806,686.3814 C422.72632,686.3814,422.6732,686.4345,422.6732,686.5142 C422.6732,686.5541,422.6732,686.5806,422.9256,686.81976 C424.22736,688.1348,424.9845,690.2469,424.9845,693.02313 C424.9845,695.2946,424.493,697.6325,422.8459,699.3062 C422.6732,699.4656,422.6732,699.4922,422.6732,699.53204 C422.6732,699.6117,422.72632,699.66486,422.806,699.66486 C422.93884,699.66486,424.13437,698.7616,424.9181,697.0746 C425.59555,695.6134,425.75494,694.1389,425.75494,693.02313 Z M425.75494,693.02313 " fill="#000000" />
<desc fontName="EHKHJB+LMMathSymbols10-Regular" rect="431.1359,692.75745,439.2521,693.28876" fontRect="430.0334,686.0493,440.36526,709.0961" ucode="2212">−</desc>
<path d="M439.25208,693.02313 C439.25208,692.75745,438.99973,692.75745,438.81372,692.75745 L431.57428,692.75745 C431.38828,692.75745,431.13593,692.75745,431.13593,693.02313 C431.13593,693.28876,431.38828,693.28876,431.57428,693.28876 L438.81372,693.28876 C438.99973,693.28876,439.25208,693.28876,439.25208,693.02313 Z M439.25208,693.02313 " fill="#000000" />
<desc fontName="ICDIKT+LMMathItalic10-Regular" rect="443.7159,690.4727,450.91553,699.2132" fontRect="443.31738,686.3814,451.32202,699.66486" ucode="b5">µ</desc>
<path d="M450.91553,694.44446 C450.91553,694.3116,450.796,694.3116,450.75616,694.3116 C450.6233,694.3116,450.61005,694.36475,450.57016,694.5507 C450.34433,695.4141,450.10522,696.1979,449.56064,696.1979 C449.20197,696.1979,449.1621,695.8525,449.1621,695.58685 C449.1621,695.2946,449.3215,694.6703,449.4278,694.2053 L449.79974,692.77075 C449.83957,692.5715,449.9724,692.0667,450.02557,691.86743 C450.09198,691.56195,450.2248,691.0572,450.2248,690.9775 C450.2248,690.73834,450.03882,690.61884,449.83957,690.61884 C449.77316,690.61884,449.4278,690.6321,449.3215,691.08374 L448.6972,693.56775 L448.3518,694.92267 C448.33856,694.9891,447.70093,696.1979,446.62497,696.1979 C445.9608,696.1979,445.64203,695.7595,445.64203,695.0422 C445.64203,694.657,445.735,694.28503,445.82797,693.9131 L446.38586,691.68146 C446.45227,691.4025,446.58514,690.89777,446.58514,690.83136 C446.58514,690.6055,446.42572,690.4727,446.19992,690.4727 C446.16003,690.4727,445.78815,690.48596,445.66855,690.95087 L443.75574,698.642 C443.7159,698.80145,443.7159,698.85455,443.7159,698.85455 C443.7159,699.05383,443.86203,699.2132,444.08783,699.2132 C444.3668,699.2132,444.52618,698.9741,444.55273,698.93427 C444.6059,698.8147,444.77856,698.12396,445.28333,696.0783 C445.70844,696.43695,446.30615,696.4901,446.57184,696.4901 C447.50168,696.4901,448.01974,695.89233,448.33856,695.5204 C448.4581,696.11816,448.9496,696.4901,449.53406,696.4901 C449.999,696.4901,450.3045,696.1846,450.51703,695.7595 C450.74286,695.2813,450.91553,694.44446,450.91553,694.44446 Z M450.91553,694.44446 " fill="#000000" />
<desc fontName="OMYJDM+LMRoman10-Regular" rect="452.63644,686.3814,455.7182,699.66486" fontRect="451.32138,681.37354,456.48734,700.19617" ucode="28">(</desc>
<path d="M455.7182,699.53204 C455.7182,699.4922,455.7182,699.4656,455.4924,699.2398 C453.83197,697.56604,453.40686,695.0555,453.40686,693.02313 C453.40686,690.7118,453.91168,688.40045,455.54553,686.74005 C455.7182,686.5806,455.7182,686.5541,455.7182,686.5142 C455.7182,686.4212,455.6651,686.3814,455.5854,686.3814 C455.4525,686.3814,454.25702,687.28467,453.47333,688.9717 C452.79584,690.43286,452.63644,691.9073,452.63644,693.02313 C452.63644,694.0592,452.78256,695.6665,453.51315,697.16754 C454.31015,698.80145,455.4525,699.66486,455.5854,699.66486 C455.6651,699.66486,455.7182,699.625,455.7182,699.53204 Z M455.7182,699.53204 " fill="#000000" />
<desc fontName="ICDIKT+LMMathItalic10-Regular" rect="456.79224,688.0285,460.87024,696.4901" fontRect="456.4867,686.3814,461.28336,699.66486" ucode="74">t</desc>
<path d="M460.6577,694.44446 C460.6577,694.3116,460.55145,694.3116,460.4983,694.3116 C460.37875,694.3116,460.36548,694.35144,460.29904,694.49756 C459.72787,695.8791,459.02386,696.1979,458.5722,696.1979 C458.29327,696.1979,458.1604,696.0252,458.1604,695.58685 C458.1604,695.268,458.18698,695.17505,458.2401,694.9492 L459.2231,691.0306 L460.47174,691.0306 C460.7374,691.0306,460.87024,691.0306,460.87024,690.76495 C460.87024,690.61884,460.7374,690.61884,460.4983,690.61884 L459.32935,690.61884 C459.8076,688.73254,459.874,688.46686,459.874,688.3872 C459.874,688.1614,459.71457,688.0285,459.48877,688.0285 C459.4489,688.0285,459.077,688.0418,458.95746,688.5067 L458.4394,690.61884 L457.19073,690.61884 C456.92505,690.61884,456.7922,690.61884,456.7922,690.8712 C456.7922,691.0306,456.8985,691.0306,457.16415,691.0306 L458.3331,691.0306 C457.37668,694.8031,457.32358,695.02893,457.32358,695.268 C457.32358,695.98535,457.82834,696.4901,458.54562,696.4901 C459.90057,696.4901,460.6577,694.5507,460.6577,694.44446 Z M460.6577,694.44446 " fill="#000000" />
<desc fontName="OMYJDM+LMRoman10-Regular" rect="462.0412,686.3814,465.12296,699.66486" fontRect="461.28403,681.37354,466.44998,700.19617" ucode="29">)</desc>
<path d="M465.12292,693.02313 C465.12292,691.987,464.9768,690.3797,464.24622,688.87866 C463.44922,687.2448,462.30685,686.3814,462.174,686.3814 C462.09433,686.3814,462.0412,686.4345,462.0412,686.5142 C462.0412,686.5541,462.0412,686.5806,462.29358,686.81976 C463.59534,688.1348,464.3525,690.2469,464.3525,693.02313 C464.3525,695.2946,463.86102,697.6325,462.21387,699.3062 C462.0412,699.4656,462.0412,699.4922,462.0412,699.53204 C462.0412,699.6117,462.09433,699.66486,462.174,699.66486 C462.30685,699.66486,463.50238,698.7616,464.2861,697.0746 C464.96356,695.6134,465.12292,694.1389,465.12292,693.02313 Z M465.12292,693.02313 " fill="#000000" />
<desc fontName="ICDIKT+LMMathItalic10-Regular" rect="467.59308,694.9359,469.14725,698.9077" fontRect="466.45068,686.3814,470.14084,699.66486" ucode="2c">,</desc>
<path d="M469.14722,696.3307 C469.14722,695.454,468.81516,694.9359,468.2971,694.9359 C467.85873,694.9359,467.59308,695.268,467.59308,695.63995 C467.59308,695.9986,467.85873,696.344,468.2971,696.344 C468.4565,696.344,468.6292,696.29083,468.76202,696.1713 C468.80185,696.1447,468.82843,696.1315,468.82843,696.1315 C468.82843,696.1315,468.85498,696.1447,468.85498,696.3307 C468.85498,697.31366,468.39008,698.11066,467.95172,698.549 C467.8056,698.6951,467.8056,698.72174,467.8056,698.7616 C467.8056,698.85455,467.87204,698.9077,467.93845,698.9077 C468.08456,698.9077,469.14722,697.8849,469.14722,696.3307 Z M469.14722,696.3307 " fill="#000000" />
<desc fontName="ICDIKT+LMMathItalic10-Regular" rect="472.74442,690.4727,478.94778,699.2132" fontRect="472.3592,686.3814,478.95444,699.66486" ucode="3b7">η</desc>
<path d="M478.84152,692.6645 C478.90793,692.42535,478.94775,692.2527,478.94775,691.89404 C478.94775,691.0306,478.41644,690.4727,477.42017,690.4727 C476.3708,690.4727,475.68005,691.16345,475.36127,691.62836 C475.2948,690.8712,474.7369,690.4727,474.13916,690.4727 C473.52814,690.4727,473.27573,690.9907,473.1562,691.22986 C472.91708,691.68146,472.7444,692.4785,472.7444,692.5184 C472.7444,692.6512,472.9038,692.6512,472.9038,692.6512 C473.03662,692.6512,473.04993,692.6379,473.1296,692.34564 C473.35544,691.4025,473.6211,690.76495,474.09933,690.76495 C474.32513,690.76495,474.5111,690.8712,474.5111,691.376 C474.5111,691.6549,474.47125,691.801,474.29855,692.49176 L473.52814,695.56024 C473.48828,695.7595,473.40857,696.065,473.40857,696.1315 C473.40857,696.37054,473.59454,696.4901,473.7938,696.4901 C473.95322,696.4901,474.19232,696.38385,474.28528,696.11816 C474.29855,696.0916,474.45798,695.4673,474.5377,695.1352 L474.82993,693.9397 C474.9096,693.64746,474.98932,693.3552,475.05573,693.0497 C475.08228,692.97,475.18857,692.5316,475.20184,692.4519 C475.2417,692.3324,475.6535,691.5885,476.1051,691.22986 C476.39734,691.01733,476.80914,690.76495,477.38034,690.76495 C477.9515,690.76495,478.09763,691.21655,478.09763,691.69476 C478.09763,691.76117,478.09763,692.0003,477.9648,692.5316 L476.4505,698.642 C476.41064,698.80145,476.41064,698.85455,476.41064,698.85455 C476.41064,699.05383,476.55676,699.2132,476.78256,699.2132 C477.19434,699.2132,477.28735,698.828,477.3272,698.6819 Z M477.3272,698.6819 " fill="#000000" />
<desc fontName="HFCTKD+LMMathItalic7-Regular" rect="479.64673,691.8829,484.22156,698.42896" fontRect="478.94934,691.3622,484.59628,700.6606" ucode="6b">k</desc>
<path d="M484.14716,697.0063 C484.14716,696.88544,484.0263,696.88544,483.99838,696.88544 C483.86823,696.88544,483.8589,696.9319,483.81244,697.1086 C483.7008,697.5084,483.44977,698.1686,482.99414,698.1686 C482.7431,698.1686,482.6687,697.93616,482.6687,697.68506 C482.6687,697.527,482.6687,697.5084,482.7245,697.26666 C482.73383,697.2388,482.771,697.0807,482.771,696.9784 C482.771,696.1508,481.6552,696.0207,481.26465,695.9928 C481.5343,695.8254,481.87836,695.51855,482.03644,695.3791 C482.51062,694.93274,482.97556,694.4957,483.49628,694.4957 C483.60785,694.4957,483.72873,694.5236,483.8031,694.6166 C483.4033,694.6817,483.31958,694.99786,483.31958,695.1373 C483.31958,695.34186,483.47766,695.4814,483.69153,695.4814 C483.9426,695.4814,484.22153,695.2768,484.22153,694.8862 C484.22153,694.5794,483.99838,694.23535,483.50558,694.23535 C482.97556,694.23535,482.49203,694.6166,482.01782,695.05365 C481.6273,695.4256,481.32043,695.7138,480.9392,695.8719 L481.85974,692.1618 C481.86902,692.14325,481.89694,692.01306,481.89694,692.01306 C481.89694,691.96655,481.85974,691.8829,481.74817,691.8829 C481.5622,691.8829,480.7904,691.9573,480.55798,691.9759 C480.48358,691.98517,480.3534,691.99445,480.3534,692.1897 C480.3534,692.3199,480.48358,692.3199,480.59518,692.3199 C481.04147,692.3199,481.04147,692.385,481.04147,692.45935 C481.04147,692.5245,481.0229,692.58026,481.00427,692.66394 L479.6932,697.9268 C479.64673,698.09424,479.64673,698.1314,479.64673,698.1314 C479.64673,698.2709,479.7583,698.42896,479.96286,698.42896 C480.21393,698.42896,480.3348,698.243,480.3906,698.0384 C480.40918,698.0012,480.80902,696.3647,480.84625,696.23456 C481.5064,696.2996,482.03644,696.5135,482.03644,696.997 C482.03644,697.0435,482.03644,697.08997,482.01782,697.183 C481.98065,697.32245,481.98065,697.36896,481.98065,697.4712 C481.98065,698.1314,482.51996,698.42896,482.96628,698.42896 C483.86823,698.42896,484.14716,697.0063,484.14716,697.0063 Z M484.14716,697.0063 " fill="#000000" />
<desc fontName="OMYJDM+LMRoman10-Regular" rect="486.8004,686.3814,489.8822,699.66486" fontRect="485.48535,681.37354,490.6513,700.19617" ucode="28">(</desc>
<path d="M489.88217,699.53204 C489.88217,699.4922,489.88217,699.4656,489.65637,699.2398 C487.99594,697.56604,487.57086,695.0555,487.57086,693.02313 C487.57086,690.7118,488.07565,688.40045,489.70953,686.74005 C489.88217,686.5806,489.88217,686.5541,489.88217,686.5142 C489.88217,686.4212,489.82907,686.3814,489.74936,686.3814 C489.61652,686.3814,488.421,687.28467,487.6373,688.9717 C486.9598,690.43286,486.8004,691.9073,486.8004,693.02313 C486.8004,694.0592,486.94653,695.6665,487.67712,697.16754 C488.47412,698.80145,489.61652,699.66486,489.74936,699.66486 C489.82907,699.66486,489.88217,699.625,489.88217,699.53204 Z M489.88217,699.53204 " fill="#000000" />
<desc fontName="ICDIKT+LMMathItalic10-Regular" rect="490.9562,688.0285,495.03424,696.4901" fontRect="490.6507,686.3814,495.44736,699.66486" ucode="74">t</desc>
<path d="M494.82172,694.44446 C494.82172,694.3116,494.71542,694.3116,494.6623,694.3116 C494.54272,694.3116,494.52948,694.35144,494.463,694.49756 C493.89185,695.8791,493.18784,696.1979,492.73618,696.1979 C492.45724,696.1979,492.3244,696.0252,492.3244,695.58685 C492.3244,695.268,492.35095,695.17505,492.4041,694.9492 L493.3871,691.0306 L494.6357,691.0306 C494.90137,691.0306,495.03424,691.0306,495.03424,690.76495 C495.03424,690.61884,494.90137,690.61884,494.6623,690.61884 L493.49335,690.61884 C493.97156,688.73254,494.03796,688.46686,494.03796,688.3872 C494.03796,688.1614,493.87854,688.0285,493.65277,688.0285 C493.61288,688.0285,493.24097,688.0418,493.12143,688.5067 L492.60336,690.61884 L491.3547,690.61884 C491.08905,690.61884,490.95618,690.61884,490.95618,690.8712 C490.95618,691.0306,491.06247,691.0306,491.32812,691.0306 L492.49707,691.0306 C491.54065,694.8031,491.48755,695.02893,491.48755,695.268 C491.48755,695.98535,491.9923,696.4901,492.7096,696.4901 C494.06454,696.4901,494.82172,694.5507,494.82172,694.44446 Z M494.82172,694.44446 " fill="#000000" />
<desc fontName="OMYJDM+LMRoman10-Regular" rect="496.20517,686.3814,499.28693,699.66486" fontRect="495.448,681.37354,500.61395,700.19617" ucode="29">)</desc>
<path d="M499.28693,693.02313 C499.28693,691.987,499.1408,690.3797,498.41022,688.87866 C497.61322,687.2448,496.47083,686.3814,496.33798,686.3814 C496.2583,686.3814,496.20517,686.4345,496.20517,686.5142 C496.20517,686.5541,496.20517,686.5806,496.45758,686.81976 C497.75934,688.1348,498.51648,690.2469,498.51648,693.02313 C498.51648,695.2946,498.025,697.6325,496.37787,699.3062 C496.20517,699.4656,496.20517,699.4922,496.20517,699.53204 C496.20517,699.6117,496.2583,699.66486,496.33798,699.66486 C496.47083,699.66486,497.66635,698.7616,498.45007,697.0746 C499.12753,695.6134,499.28693,694.1389,499.28693,693.02313 Z M499.28693,693.02313 " fill="#000000" />
<desc  rect="501.350000,686.380000,504.310000,699.670000" borderline_left="1" borderline_top="1" borderline_right="1" borderline_bottom="1">path</desc>
<path d="M504.30612,693.02313 C504.30612,693.02313,504.30612,692.9434,504.23972,692.784 L501.91513,686.67365 C501.8487,686.5142,501.80884,686.3814,501.6229,686.3814 C501.47678,686.3814,501.35718,686.5009,501.35718,686.64703 C501.35718,686.64703,501.35718,686.72675,501.42365,686.88617 L503.76154,693.02313 L501.42365,699.1601 C501.35718,699.31946,501.35718,699.3992,501.35718,699.3992 C501.35718,699.5453,501.47678,699.66486,501.6229,699.66486 C501.79553,699.66486,501.8487,699.5453,501.90182,699.3992 L504.23972,693.2622 C504.30612,693.10284,504.30612,693.02313,504.30612,693.02313 Z M504.30612,693.02313 " fill="#000000" />
<desc  rect="394.540000,701.810000,511.940000,702.210000" borderline_top="1" borderline_bottom="1">path</desc>
<clipPath id="path_mask_006_0002"><path d="M0.0,1056.0 L0.0,-3.1471252E-5 L816.0,-3.1471252E-5 L816.0,1056.0 Z " /></clipPath>
<g clip-path="url(#path_mask_006_0002)">
<path d="M394.74,702.0093 L511.73865,702.0093 " fill="none" stroke="#000000" stroke-opacity="1.0" stroke-width="0.398"  />
</g>
<desc  rect="372.420000,737.890000,390.110000,756.500000" borderline_left="1" borderline_top="1" borderline_bottom="1">path</desc>
<path d="M390.1015,752.2395 L389.7694,752.2395 C389.25134,753.621,387.84332,754.52423,386.31573,754.9227 C386.03674,754.98914,384.735,755.33453,382.18454,755.33453 L374.17462,755.33453 L380.9359,747.4043 C381.0289,747.29803,381.05548,747.2582,381.05548,747.1918 C381.05548,747.1918,381.05548,747.12537,380.9625,746.9925 L374.7724,738.53094 L382.05173,738.53094 C383.83173,738.53094,385.0405,738.7169,385.16003,738.74347 C385.87738,738.84973,387.03302,739.07556,388.0824,739.73975 C388.41452,739.9523,389.3178,740.55005,389.7694,741.626 L390.1015,741.626 L388.4942,737.8934 L372.79315,737.8934 C372.48764,737.8934,372.47433,737.9066,372.4345,737.9863 C372.4212,738.0262,372.4212,738.27856,372.4212,738.4247 L379.44818,748.04193 L372.56732,756.105 C372.4345,756.2644,372.4345,756.34406,372.4345,756.34406 C372.4345,756.4902,372.55405,756.4902,372.79315,756.4902 L388.4942,756.4902 Z M388.4942,756.4902 " fill="#000000" />
<desc  rect="396.200000,731.560000,399.160000,744.850000" borderline_left="1" borderline_top="1" borderline_right="1" borderline_bottom="1">path</desc>
<path d="M399.15012,744.5819 C399.15012,744.5819,399.15012,744.5022,399.0837,744.3428 L396.74582,738.2058 L399.0837,732.06885 C399.15012,731.9094,399.15012,731.8298,399.15012,731.8298 C399.15012,731.68365,399.03058,731.5641,398.88446,731.5641 C398.71176,731.5641,398.65863,731.68365,398.60547,731.8298 L396.26758,737.96674 C396.20117,738.1261,396.20117,738.2058,396.20117,738.2058 C396.20117,738.2058,396.20117,738.2855,396.26758,738.44495 L398.59222,744.5553 C398.65863,744.7147,398.69846,744.84753,398.88446,744.84753 C399.03058,744.84753,399.15012,744.728,399.15012,744.5819 Z M399.15012,744.5819 " fill="#000000" />
<desc fontName="ICDIKT+LMMathItalic10-Regular" rect="400.26398,732.4541,411.20956,741.5267" fontRect="399.90533,731.5641,410.91068,744.84753" ucode="58">X</desc>
<path d="M409.60226,741.2743 C409.60226,741.11487,409.46942,741.11487,409.36316,741.11487 C408.47314,741.1016,408.4466,741.06177,408.2208,740.5304 L406.5072,736.42584 C407.4105,735.496,408.80527,733.9153,409.23032,733.54333 C409.61554,733.2245,410.1203,732.9057,410.91733,732.86584 C411.09003,732.8526,411.20956,732.8526,411.20956,732.6002 C411.20956,732.6002,411.20956,732.4541,411.03687,732.4541 C410.63837,732.4541,410.2,732.4939,409.7882,732.4939 C409.29672,732.4939,408.79196,732.4541,408.31378,732.4541 C408.23407,732.4541,408.06137,732.4541,408.06137,732.7197 C408.06137,732.81274,408.12778,732.8526,408.2208,732.86584 C408.34033,732.87915,408.75214,732.9057,408.75214,733.27765 C408.75214,733.4636,408.60602,733.6363,408.49973,733.75586 L406.34778,736.0672 L405.232,733.42377 L405.1656,733.2511 C405.1656,733.1714,405.39142,732.919,405.9493,732.86584 C406.08212,732.8526,406.21497,732.8393,406.21497,732.61346 C406.21497,732.4541,406.05554,732.4541,406.01572,732.4541 C405.47107,732.4541,404.8999,732.4939,404.342,732.4939 C404.0099,732.4939,403.18634,732.4541,402.85425,732.4541 C402.77454,732.4541,402.61517,732.4541,402.61517,732.7197 C402.61517,732.86584,402.748,732.86584,402.92065,732.86584 C403.71765,732.86584,403.79736,732.9987,403.91693,733.29095 L405.48438,736.997 L402.68158,740.0124 C402.60187,740.0788,402.5886,740.09204,402.50888,740.1585 C401.858,740.8625,401.23364,741.0751,400.5562,741.11487 C400.3835,741.1282,400.26398,741.1282,400.26398,741.38055 C400.26398,741.38055,400.26398,741.5267,400.43665,741.5267 C400.83517,741.5267,401.27353,741.4868,401.6853,741.4868 C402.17682,741.4868,402.69482,741.5267,403.17307,741.5267 C403.25278,741.5267,403.41217,741.5267,403.41217,741.261 C403.41217,741.1282,403.25278,741.11487,403.25278,741.11487 C403.13318,741.1016,402.7214,741.0751,402.7214,740.7031 C402.7214,740.4906,402.92065,740.278,403.08008,740.10535 L404.435,738.6707 L405.6305,737.36896 L406.97214,740.5437 L407.03854,740.7297 C407.03854,740.83594,406.78613,741.06177,406.26813,741.11487 C406.122,741.1282,406.00244,741.1415,406.00244,741.3673 C406.00244,741.5267,406.14856,741.5267,406.20166,741.5267 L407.87543,741.4868 C408.2075,741.4868,409.0178,741.5267,409.34985,741.5267 C409.44284,741.5267,409.60226,741.5267,409.60226,741.2743 Z M409.60226,741.2743 " fill="#000000" />
<desc fontName="OMYJDM+LMRoman10-Regular" rect="413.2684,731.5641,416.35016,744.84753" fontRect="411.95334,726.5562,417.1193,745.3789" ucode="28">(</desc>
<path d="M416.35016,744.7147 C416.35016,744.67487,416.35016,744.6483,416.12436,744.4225 C414.46393,742.7488,414.03882,740.23816,414.03882,738.2058 C414.03882,735.8945,414.54364,733.5832,416.1775,731.9227 C416.35016,731.7633,416.35016,731.73676,416.35016,731.6969 C416.35016,731.60394,416.29706,731.5641,416.21735,731.5641 C416.08447,731.5641,414.88898,732.46735,414.1053,734.15436 C413.4278,735.61554,413.2684,737.09,413.2684,738.2058 C413.2684,739.24194,413.41452,740.84924,414.1451,742.3503 C414.9421,743.98413,416.08447,744.84753,416.21735,744.84753 C416.29706,744.84753,416.35016,744.8077,416.35016,744.7147 Z M416.35016,744.7147 " fill="#000000" />
<desc fontName="ICDIKT+LMMathItalic10-Regular" rect="417.4242,733.21124,421.5022,741.6728" fontRect="417.11865,731.5641,421.9153,744.84753" ucode="74">t</desc>
<path d="M421.28967,739.62714 C421.28967,739.4943,421.1834,739.4943,421.13025,739.4943 C421.0107,739.4943,420.99744,739.5342,420.931,739.6803 C420.35983,741.06177,419.65582,741.38055,419.20416,741.38055 C418.92523,741.38055,418.79236,741.2079,418.79236,740.76953 C418.79236,740.45074,418.81894,740.3577,418.87207,740.1319 L419.85507,736.2133 L421.1037,736.2133 C421.36935,736.2133,421.5022,736.2133,421.5022,735.94763 C421.5022,735.8015,421.36935,735.8015,421.13025,735.8015 L419.9613,735.8015 C420.43954,733.9153,420.50595,733.6496,420.50595,733.5699 C420.50595,733.34406,420.34653,733.21124,420.12073,733.21124 C420.08087,733.21124,419.70895,733.2245,419.58942,733.68945 L419.07135,735.8015 L417.8227,735.8015 C417.557,735.8015,417.42416,735.8015,417.42416,736.0539 C417.42416,736.2133,417.53046,736.2133,417.7961,736.2133 L418.96506,736.2133 C418.00864,739.9858,417.95554,740.2116,417.95554,740.45074 C417.95554,741.168,418.4603,741.6728,419.17758,741.6728 C420.53253,741.6728,421.28967,739.7334,421.28967,739.62714 Z M421.28967,739.62714 " fill="#000000" />
<desc fontName="OMYJDM+LMRoman10-Regular" rect="422.67316,731.5641,425.7549,744.84753" fontRect="421.916,726.5562,427.08194,745.3789" ucode="29">)</desc>
<path d="M425.75488,738.2058 C425.75488,737.1697,425.60876,735.5624,424.87817,734.0614 C424.08118,732.4275,422.9388,731.5641,422.80597,731.5641 C422.7263,731.5641,422.67316,731.6172,422.67316,731.6969 C422.67316,731.73676,422.67316,731.7633,422.92554,732.00244 C424.2273,733.3175,424.98447,735.42957,424.98447,738.2058 C424.98447,740.4773,424.49298,742.8152,422.84583,744.4889 C422.67316,744.6483,422.67316,744.67487,422.67316,744.7147 C422.67316,744.79443,422.7263,744.84753,422.80597,744.84753 C422.9388,744.84753,424.13434,743.9443,424.91806,742.25726 C425.59552,740.7961,425.75488,739.32166,425.75488,738.2058 Z M425.75488,738.2058 " fill="#000000" />
<desc fontName="EHKHJB+LMMathSymbols10-Regular" rect="431.13586,737.9401,439.25208,738.4715" fontRect="430.03333,731.232,440.3652,754.2788" ucode="2212">−</desc>
<path d="M439.25204,738.2058 C439.25204,737.9401,438.9997,737.9401,438.8137,737.9401 L431.57422,737.9401 C431.38824,737.9401,431.13586,737.9401,431.13586,738.2058 C431.13586,738.4715,431.38824,738.4715,431.57422,738.4715 L438.8137,738.4715 C438.9997,738.4715,439.25204,738.4715,439.25204,738.2058 Z M439.25204,738.2058 " fill="#000000" />
<desc fontName="ICDIKT+LMMathItalic10-Regular" rect="443.71585,735.6554,450.9155,744.39594" fontRect="443.31735,731.5641,451.32196,744.84753" ucode="b5">µ</desc>
<path d="M450.9155,739.62714 C450.9155,739.4943,450.79596,739.4943,450.7561,739.4943 C450.62326,739.4943,450.61,739.5474,450.57013,739.7334 C450.3443,740.59686,450.1052,741.38055,449.5606,741.38055 C449.2019,741.38055,449.16208,741.0352,449.16208,740.76953 C449.16208,740.4773,449.32147,739.85297,449.42773,739.38806 L449.79968,737.9534 C449.83954,737.75415,449.97238,737.2494,450.0255,737.0502 C450.09192,736.7446,450.22473,736.23987,450.22473,736.16016 C450.22473,735.9211,450.0388,735.8015,449.83954,735.8015 C449.77313,735.8015,449.42773,735.8148,449.32147,736.2664 L448.69714,738.7504 L448.35178,740.10535 C448.3385,740.17175,447.7009,741.38055,446.62494,741.38055 C445.96075,741.38055,445.64197,740.9422,445.64197,740.2249 C445.64197,739.83966,445.73495,739.4678,445.82794,739.0958 L446.38583,736.8642 C446.45224,736.5852,446.58508,736.08044,446.58508,736.01404 C446.58508,735.7882,446.42566,735.6554,446.1999,735.6554 C446.16,735.6554,445.7881,735.6687,445.66852,736.1336 L443.7557,743.8247 C443.71588,743.98413,443.71588,744.03723,443.71588,744.03723 C443.71588,744.2365,443.862,744.39594,444.08777,744.39594 C444.36676,744.39594,444.52612,744.1568,444.5527,744.11694 C444.60583,743.99744,444.77853,743.30664,445.2833,741.261 C445.70837,741.6197,446.30612,741.6728,446.57178,741.6728 C447.50165,741.6728,448.0197,741.0751,448.3385,740.7031 C448.45807,741.30084,448.94955,741.6728,449.53403,741.6728 C449.99896,741.6728,450.30444,741.3673,450.51697,740.9422 C450.7428,740.464,450.9155,739.62714,450.9155,739.62714 Z M450.9155,739.62714 " fill="#000000" />
<desc fontName="OMYJDM+LMRoman10-Regular" rect="452.6364,731.5641,455.71817,744.84753" fontRect="451.32135,726.5562,456.48727,745.3789" ucode="28">(</desc>
<path d="M455.71814,744.7147 C455.71814,744.67487,455.71814,744.6483,455.49237,744.4225 C453.8319,742.7488,453.40683,740.23816,453.40683,738.2058 C453.40683,735.8945,453.91162,733.5832,455.5455,731.9227 C455.71814,731.7633,455.71814,731.73676,455.71814,731.6969 C455.71814,731.60394,455.66504,731.5641,455.58533,731.5641 C455.45248,731.5641,454.25696,732.46735,453.47327,734.15436 C452.79578,735.61554,452.6364,737.09,452.6364,738.2058 C452.6364,739.24194,452.78253,740.84924,453.51312,742.3503 C454.31012,743.98413,455.45248,744.84753,455.58533,744.84753 C455.66504,744.84753,455.71814,744.8077,455.71814,744.7147 Z M455.71814,744.7147 " fill="#000000" />
<desc fontName="ICDIKT+LMMathItalic10-Regular" rect="456.79218,733.21124,460.8702,741.6728" fontRect="456.48666,731.5641,461.28333,744.84753" ucode="74">t</desc>
<path d="M460.65768,739.62714 C460.65768,739.4943,460.5514,739.4943,460.49826,739.4943 C460.37872,739.4943,460.36545,739.5342,460.299,739.6803 C459.72784,741.06177,459.0238,741.38055,458.57214,741.38055 C458.2932,741.38055,458.16037,741.2079,458.16037,740.76953 C458.16037,740.45074,458.18695,740.3577,458.24008,740.1319 L459.22308,736.2133 L460.47168,736.2133 C460.73737,736.2133,460.8702,736.2133,460.8702,735.94763 C460.8702,735.8015,460.73737,735.8015,460.49826,735.8015 L459.3293,735.8015 C459.80756,733.9153,459.87396,733.6496,459.87396,733.5699 C459.87396,733.34406,459.71454,733.21124,459.48874,733.21124 C459.44885,733.21124,459.07697,733.2245,458.9574,733.68945 L458.43933,735.8015 L457.19067,735.8015 C456.92502,735.8015,456.79218,735.8015,456.79218,736.0539 C456.79218,736.2133,456.89844,736.2133,457.16412,736.2133 L458.33307,736.2133 C457.37665,739.9858,457.32355,740.2116,457.32355,740.45074 C457.32355,741.168,457.8283,741.6728,458.5456,741.6728 C459.9005,741.6728,460.65768,739.7334,460.65768,739.62714 Z M460.65768,739.62714 " fill="#000000" />
<desc fontName="OMYJDM+LMRoman10-Regular" rect="462.04114,731.5641,465.12292,744.84753" fontRect="461.284,726.5562,466.44992,745.3789" ucode="29">)</desc>
<path d="M465.1229,738.2058 C465.1229,737.1697,464.97678,735.5624,464.2462,734.0614 C463.4492,732.4275,462.30682,731.5641,462.17395,731.5641 C462.0943,731.5641,462.04114,731.6172,462.04114,731.6969 C462.04114,731.73676,462.04114,731.7633,462.29355,732.00244 C463.5953,733.3175,464.35248,735.42957,464.35248,738.2058 C464.35248,740.4773,463.86096,742.8152,462.21384,744.4889 C462.04114,744.6483,462.04114,744.67487,462.04114,744.7147 C462.04114,744.79443,462.0943,744.84753,462.17395,744.84753 C462.30682,744.84753,463.50232,743.9443,464.28607,742.25726 C464.9635,740.7961,465.1229,739.32166,465.1229,738.2058 Z M465.1229,738.2058 " fill="#000000" />
<desc fontName="ICDIKT+LMMathItalic10-Regular" rect="467.5917,740.11865,469.14584,744.0904" fontRect="466.4493,731.5641,470.13947,744.84753" ucode="2c">,</desc>
<path d="M469.14584,741.5134 C469.14584,740.6367,468.81378,740.11865,468.29572,740.11865 C467.85736,740.11865,467.59167,740.45074,467.59167,740.82263 C467.59167,741.18134,467.85736,741.5267,468.29572,741.5267 C468.45514,741.5267,468.6278,741.4736,468.76062,741.354 C468.80048,741.32745,468.82703,741.31415,468.82703,741.31415 C468.82703,741.31415,468.8536,741.32745,468.8536,741.5134 C468.8536,742.4964,468.38867,743.2934,467.95032,743.73175 C467.8042,743.87787,467.8042,743.9044,467.8042,743.9443 C467.8042,744.03723,467.87067,744.0904,467.93707,744.0904 C468.0832,744.0904,469.14584,743.06757,469.14584,741.5134 Z M469.14584,741.5134 " fill="#000000" />
<desc fontName="ICDIKT+LMMathItalic10-Regular" rect="472.743,735.6554,478.9464,744.39594" fontRect="472.3578,731.5641,478.95303,744.84753" ucode="3b7">η</desc>
<path d="M478.84015,737.84717 C478.90656,737.60803,478.94638,737.43536,478.94638,737.0767 C478.94638,736.2133,478.41504,735.6554,477.4188,735.6554 C476.3694,735.6554,475.67868,736.3461,475.35986,736.81104 C475.29343,736.0539,474.73553,735.6554,474.1378,735.6554 C473.52673,735.6554,473.27435,736.17346,473.1548,736.41254 C472.9157,736.8642,472.743,737.6612,472.743,737.70105 C472.743,737.83386,472.90244,737.83386,472.90244,737.83386 C473.03525,737.83386,473.04855,737.8206,473.12823,737.5284 C473.35406,736.5852,473.61972,735.94763,474.09796,735.94763 C474.32373,735.94763,474.50974,736.0539,474.50974,736.55865 C474.50974,736.83765,474.46985,736.98376,474.29718,737.6745 L473.52673,740.743 C473.4869,740.9422,473.4072,741.24774,473.4072,741.31415 C473.4072,741.5532,473.59314,741.6728,473.79242,741.6728 C473.95184,741.6728,474.19092,741.5665,474.2839,741.30084 C474.29718,741.2743,474.4566,740.64996,474.53632,740.3179 L474.82855,739.1224 C474.9082,738.83014,474.9879,738.5379,475.05432,738.23236 C475.0809,738.1527,475.1872,737.71436,475.20044,737.63464 C475.24033,737.5151,475.6521,736.7712,476.10373,736.41254 C476.39597,736.2,476.80774,735.94763,477.37897,735.94763 C477.95013,735.94763,478.09625,736.3993,478.09625,736.87744 C478.09625,736.9439,478.09625,737.183,477.96344,737.71436 L476.4491,743.8247 C476.40927,743.98413,476.40927,744.03723,476.40927,744.03723 C476.40927,744.2365,476.5554,744.39594,476.7812,744.39594 C477.19296,744.39594,477.28598,744.0107,477.3258,743.86456 Z M477.3258,743.86456 " fill="#000000" />
<desc fontName="HFCTKD+LMMathItalic7-Regular" rect="479.6467,737.0656,484.2215,743.6117" fontRect="478.9493,736.54486,484.59622,745.84326" ucode="6b">k</desc>
<path d="M484.1471,742.189 C484.1471,742.0681,484.02625,742.0681,483.99835,742.0681 C483.86816,742.0681,483.85886,742.1146,483.81238,742.2913 C483.70078,742.6911,483.4497,743.3513,482.9941,743.3513 C482.74304,743.3513,482.66867,743.11884,482.66867,742.8678 C482.66867,742.7097,482.66867,742.6911,482.72446,742.4494 C482.73376,742.42145,482.77097,742.2634,482.77097,742.16113 C482.77097,741.33356,481.65515,741.20337,481.26462,741.1755 C481.53427,741.0081,481.8783,740.7013,482.03638,740.56177 C482.5106,740.1155,482.97552,739.67847,483.49622,739.67847 C483.6078,739.67847,483.7287,739.70636,483.80307,739.7993 C483.40326,739.86444,483.31955,740.18054,483.31955,740.32007 C483.31955,740.5246,483.47763,740.66406,483.6915,740.66406 C483.94257,740.66406,484.2215,740.45953,484.2215,740.069 C484.2215,739.76215,483.99835,739.4181,483.50555,739.4181 C482.97552,739.4181,482.492,739.7993,482.0178,740.2363 C481.62726,740.6083,481.3204,740.89655,480.93918,741.0546 L481.8597,737.34454 C481.869,737.3259,481.8969,737.1958,481.8969,737.1958 C481.8969,737.1493,481.8597,737.0656,481.74814,737.0656 C481.56213,737.0656,480.79037,737.14,480.55795,737.15857 C480.48352,737.1679,480.35336,737.1772,480.35336,737.37244 C480.35336,737.5026,480.48352,737.5026,480.59515,737.5026 C481.04144,737.5026,481.04144,737.5677,481.04144,737.6421 C481.04144,737.7072,481.02283,737.763,481.00424,737.8467 L479.69318,743.10956 C479.6467,743.2769,479.6467,743.31415,479.6467,743.31415 C479.6467,743.4536,479.75827,743.6117,479.96283,743.6117 C480.21387,743.6117,480.33478,743.4257,480.39056,743.2211 C480.40915,743.18396,480.80896,741.5474,480.8462,741.41724 C481.50635,741.48236,482.03638,741.6962,482.03638,742.17975 C482.03638,742.2262,482.03638,742.2727,482.0178,742.36566 C481.9806,742.5052,481.9806,742.55164,481.9806,742.65393 C481.9806,743.31415,482.5199,743.6117,482.96625,743.6117 C483.86816,743.6117,484.1471,742.189,484.1471,742.189 Z M484.1471,742.189 " fill="#000000" />
<desc fontName="OMYJDM+LMRoman10-Regular" rect="486.80038,731.5641,489.88214,744.84753" fontRect="485.48532,726.5562,490.65128,745.3789" ucode="28">(</desc>
<path d="M489.88214,744.7147 C489.88214,744.67487,489.88214,744.6483,489.65634,744.4225 C487.9959,742.7488,487.5708,740.23816,487.5708,738.2058 C487.5708,735.8945,488.07562,733.5832,489.70947,731.9227 C489.88214,731.7633,489.88214,731.73676,489.88214,731.6969 C489.88214,731.60394,489.82904,731.5641,489.74933,731.5641 C489.61646,731.5641,488.42096,732.46735,487.63727,734.15436 C486.95978,735.61554,486.80038,737.09,486.80038,738.2058 C486.80038,739.24194,486.9465,740.84924,487.6771,742.3503 C488.4741,743.98413,489.61646,744.84753,489.74933,744.84753 C489.82904,744.84753,489.88214,744.8077,489.88214,744.7147 Z M489.88214,744.7147 " fill="#000000" />
<desc fontName="ICDIKT+LMMathItalic10-Regular" rect="490.95618,733.21124,495.03418,741.6728" fontRect="490.65063,731.5641,495.4473,744.84753" ucode="74">t</desc>
<path d="M494.82166,739.62714 C494.82166,739.4943,494.7154,739.4943,494.66223,739.4943 C494.5427,739.4943,494.52942,739.5342,494.46298,739.6803 C493.8918,741.06177,493.1878,741.38055,492.73615,741.38055 C492.4572,741.38055,492.32434,741.2079,492.32434,740.76953 C492.32434,740.45074,492.35092,740.3577,492.40405,740.1319 L493.38705,736.2133 L494.63568,736.2133 C494.90134,736.2133,495.03418,736.2133,495.03418,735.94763 C495.03418,735.8015,494.90134,735.8015,494.66223,735.8015 L493.4933,735.8015 C493.97153,733.9153,494.03793,733.6496,494.03793,733.5699 C494.03793,733.34406,493.8785,733.21124,493.6527,733.21124 C493.61285,733.21124,493.24094,733.2245,493.1214,733.68945 L492.60333,735.8015 L491.35468,735.8015 C491.089,735.8015,490.95615,735.8015,490.95615,736.0539 C490.95615,736.2133,491.06244,736.2133,491.3281,736.2133 L492.49704,736.2133 C491.54062,739.9858,491.48752,740.2116,491.48752,740.45074 C491.48752,741.168,491.99228,741.6728,492.70956,741.6728 C494.0645,741.6728,494.82166,739.7334,494.82166,739.62714 Z M494.82166,739.62714 " fill="#000000" />
<desc fontName="OMYJDM+LMRoman10-Regular" rect="496.20514,731.5641,499.2869,744.84753" fontRect="495.44797,726.5562,500.61392,745.3789" ucode="29">)</desc>
<path d="M499.28687,738.2058 C499.28687,737.1697,499.14075,735.5624,498.41016,734.0614 C497.61316,732.4275,496.4708,731.5641,496.33795,731.5641 C496.25827,731.5641,496.20514,731.6172,496.20514,731.6969 C496.20514,731.73676,496.20514,731.7633,496.45752,732.00244 C497.75928,733.3175,498.51645,735.42957,498.51645,738.2058 C498.51645,740.4773,498.02496,742.8152,496.3778,744.4889 C496.20514,744.6483,496.20514,744.67487,496.20514,744.7147 C496.20514,744.79443,496.25827,744.84753,496.33795,744.84753 C496.4708,744.84753,497.66632,743.9443,498.45004,742.25726 C499.1275,740.7961,499.28687,739.32166,499.28687,738.2058 Z M499.28687,738.2058 " fill="#000000" />
<desc  rect="501.350000,731.560000,504.310000,744.850000" borderline_left="1" borderline_top="1" borderline_right="1" borderline_bottom="1">path</desc>
<path d="M504.3061,738.2058 C504.3061,738.2058,504.3061,738.1261,504.2397,737.96674 L501.9151,731.8563 C501.84863,731.6969,501.8088,731.5641,501.62286,731.5641 C501.47675,731.5641,501.35715,731.68365,501.35715,731.8298 C501.35715,731.8298,501.35715,731.9094,501.42358,732.06885 L503.76147,738.2058 L501.42358,744.3428 C501.35715,744.5022,501.35715,744.5819,501.35715,744.5819 C501.35715,744.728,501.47675,744.84753,501.62286,744.84753 C501.7955,744.84753,501.84863,744.728,501.9018,744.5819 L504.2397,738.44495 C504.3061,738.2855,504.3061,738.2058,504.3061,738.2058 Z M504.3061,738.2058 " fill="#000000" />
<desc  rect="394.540000,746.990000,511.940000,747.400000" borderline_top="1" borderline_bottom="1">path</desc>
<clipPath id="path_mask_006_0003"><path d="M0.0,1056.0 L0.0,-3.1471252E-5 L816.0,-3.1471252E-5 L816.0,1056.0 Z " /></clipPath>
<g clip-path="url(#path_mask_006_0003)">
<path d="M394.74,747.192 L511.73865,747.192 " fill="none" stroke="#000000" stroke-opacity="1.0" stroke-width="0.398"  />
</g>
</svg>
